<svg width="237" height="121" viewBox="0 0 237 121" fill="none" xmlns="http://www.w3.org/2000/svg">
<mask id="mask0_1095_3858" style="mask-type:alpha" maskUnits="userSpaceOnUse" x="0" y="0" width="237" height="121">
<rect width="237" height="121" fill="url(#paint0_linear_1095_3858)"/>
</mask>
<g mask="url(#mask0_1095_3858)">
<path fill-rule="evenodd" clip-rule="evenodd" d="M9 8.75036C7.94698 3.19824 3.06903 -1 -2.78947 -1C-2.90574 -1 -3 -0.905744 -3 -0.789474C-3 5.06903 1.19824 9.94698 6.75036 11C1.19824 12.053 -3 16.931 -3 22.7895C-3 22.9057 -2.90574 23 -2.78947 23C3.06903 23 7.94698 18.8018 9 13.2496C10.053 18.8018 14.931 23 20.7895 23C20.9057 23 21 22.9057 21 22.7895C21 16.931 16.8018 12.053 11.2496 11C16.8018 9.94698 21 5.06903 21 -0.789474C21 -0.905744 20.9057 -1 20.7895 -1C14.931 -1 10.053 3.19824 9 8.75036ZM9.21244 11.2124C9.32446 17.4386 14.3508 22.465 20.577 22.577C20.465 16.3508 15.4386 11.3245 9.21244 11.2124ZM20.577 -0.577037C14.3508 -0.465015 9.32446 4.56137 9.21244 10.7876C15.4386 10.6755 20.465 5.64916 20.577 -0.577037ZM8.78756 11.2124C8.67554 17.4386 3.64916 22.465 -2.57704 22.577C-2.46502 16.3508 2.56137 11.3245 8.78756 11.2124ZM-2.57704 -0.577038C3.64916 -0.465016 8.67554 4.56137 8.78756 10.7876C2.56137 10.6755 -2.46502 5.64916 -2.57704 -0.577038Z" fill="url(#paint1_radial_1095_3858)" fill-opacity="0.3"/>
<path fill-rule="evenodd" clip-rule="evenodd" d="M33 8.75036C31.947 3.19824 27.069 -1 21.2105 -1C21.0943 -1 21 -0.905744 21 -0.789474C21 5.06903 25.1982 9.94698 30.7504 11C25.1982 12.053 21 16.931 21 22.7895C21 22.9057 21.0943 23 21.2105 23C27.069 23 31.947 18.8018 33 13.2496C34.053 18.8018 38.931 23 44.7895 23C44.9057 23 45 22.9057 45 22.7895C45 16.931 40.8018 12.053 35.2496 11C40.8018 9.94698 45 5.06903 45 -0.789474C45 -0.905744 44.9057 -1 44.7895 -1C38.931 -1 34.053 3.19824 33 8.75036ZM33.2124 11.2124C33.3245 17.4386 38.3508 22.465 44.577 22.577C44.465 16.3508 39.4386 11.3245 33.2124 11.2124ZM44.577 -0.577037C38.3508 -0.465015 33.3245 4.56137 33.2124 10.7876C39.4386 10.6755 44.465 5.64916 44.577 -0.577037ZM32.7876 11.2124C32.6755 17.4386 27.6492 22.465 21.423 22.577C21.535 16.3508 26.5614 11.3245 32.7876 11.2124ZM21.423 -0.577038C27.6492 -0.465016 32.6755 4.56137 32.7876 10.7876C26.5614 10.6755 21.535 5.64916 21.423 -0.577038Z" fill="url(#paint2_radial_1095_3858)" fill-opacity="0.3"/>
<path fill-rule="evenodd" clip-rule="evenodd" d="M57 8.75036C55.947 3.19824 51.069 -1 45.2105 -1C45.0943 -1 45 -0.905744 45 -0.789474C45 5.06903 49.1982 9.94698 54.7504 11C49.1982 12.053 45 16.931 45 22.7895C45 22.9057 45.0943 23 45.2105 23C51.069 23 55.947 18.8018 57 13.2496C58.053 18.8018 62.931 23 68.7895 23C68.9057 23 69 22.9057 69 22.7895C69 16.931 64.8018 12.053 59.2496 11C64.8018 9.94698 69 5.06903 69 -0.789474C69 -0.905744 68.9057 -1 68.7895 -1C62.931 -1 58.053 3.19824 57 8.75036ZM57.2124 11.2124C57.3245 17.4386 62.3508 22.465 68.577 22.577C68.465 16.3508 63.4386 11.3245 57.2124 11.2124ZM68.577 -0.577037C62.3508 -0.465015 57.3245 4.56137 57.2124 10.7876C63.4386 10.6755 68.465 5.64916 68.577 -0.577037ZM56.7876 11.2124C56.6755 17.4386 51.6492 22.465 45.423 22.577C45.535 16.3508 50.5614 11.3245 56.7876 11.2124ZM45.423 -0.577038C51.6492 -0.465016 56.6755 4.56137 56.7876 10.7876C50.5614 10.6755 45.535 5.64916 45.423 -0.577038Z" fill="url(#paint3_radial_1095_3858)" fill-opacity="0.3"/>
<path fill-rule="evenodd" clip-rule="evenodd" d="M81 8.75036C79.947 3.19824 75.069 -1 69.2105 -1C69.0943 -1 69 -0.905744 69 -0.789474C69 5.06903 73.1982 9.94698 78.7504 11C73.1982 12.053 69 16.931 69 22.7895C69 22.9057 69.0943 23 69.2105 23C75.069 23 79.947 18.8018 81 13.2496C82.053 18.8018 86.931 23 92.7895 23C92.9057 23 93 22.9057 93 22.7895C93 16.931 88.8018 12.053 83.2496 11C88.8018 9.94698 93 5.06903 93 -0.789474C93 -0.905744 92.9057 -1 92.7895 -1C86.931 -1 82.053 3.19824 81 8.75036ZM81.2124 11.2124C81.3245 17.4386 86.3508 22.465 92.577 22.577C92.465 16.3508 87.4386 11.3245 81.2124 11.2124ZM92.577 -0.577037C86.3508 -0.465015 81.3245 4.56137 81.2124 10.7876C87.4386 10.6755 92.465 5.64916 92.577 -0.577037ZM80.7876 11.2124C80.6755 17.4386 75.6492 22.465 69.423 22.577C69.535 16.3508 74.5614 11.3245 80.7876 11.2124ZM69.423 -0.577038C75.6492 -0.465016 80.6755 4.56137 80.7876 10.7876C74.5614 10.6755 69.535 5.64916 69.423 -0.577038Z" fill="url(#paint4_radial_1095_3858)" fill-opacity="0.3"/>
<path fill-rule="evenodd" clip-rule="evenodd" d="M9 37.2496C7.94698 42.8018 3.06903 47 -2.78947 47C-2.90574 47 -3 46.9057 -3 46.7895C-3 40.931 1.19824 36.053 6.75036 35C1.19824 33.947 -3 29.069 -3 23.2105C-3 23.0943 -2.90574 23 -2.78947 23C3.06903 23 7.94698 27.1982 9 32.7504C10.053 27.1982 14.931 23 20.7895 23C20.9057 23 21 23.0943 21 23.2105C21 29.069 16.8018 33.947 11.2496 35C16.8018 36.053 21 40.931 21 46.7895C21 46.9057 20.9057 47 20.7895 47C14.931 47 10.053 42.8018 9 37.2496ZM9.21244 34.7876C9.32446 28.5614 14.3508 23.535 20.577 23.423C20.465 29.6492 15.4386 34.6755 9.21244 34.7876ZM20.577 46.577C14.3508 46.465 9.32446 41.4386 9.21244 35.2124C15.4386 35.3245 20.465 40.3508 20.577 46.577ZM8.78756 34.7876C8.67554 28.5614 3.64916 23.535 -2.57704 23.423C-2.46502 29.6492 2.56137 34.6755 8.78756 34.7876ZM-2.57704 46.577C3.64916 46.465 8.67554 41.4386 8.78756 35.2124C2.56137 35.3245 -2.46502 40.3508 -2.57704 46.577Z" fill="url(#paint5_radial_1095_3858)" fill-opacity="0.3"/>
<path fill-rule="evenodd" clip-rule="evenodd" d="M33 37.2496C31.947 42.8018 27.069 47 21.2105 47C21.0943 47 21 46.9057 21 46.7895C21 40.931 25.1982 36.053 30.7504 35C25.1982 33.947 21 29.069 21 23.2105C21 23.0943 21.0943 23 21.2105 23C27.069 23 31.947 27.1982 33 32.7504C34.053 27.1982 38.931 23 44.7895 23C44.9057 23 45 23.0943 45 23.2105C45 29.069 40.8018 33.947 35.2496 35C40.8018 36.053 45 40.931 45 46.7895C45 46.9057 44.9057 47 44.7895 47C38.931 47 34.053 42.8018 33 37.2496ZM33.2124 34.7876C33.3245 28.5614 38.3508 23.535 44.577 23.423C44.465 29.6492 39.4386 34.6755 33.2124 34.7876ZM44.577 46.577C38.3508 46.465 33.3245 41.4386 33.2124 35.2124C39.4386 35.3245 44.465 40.3508 44.577 46.577ZM32.7876 34.7876C32.6755 28.5614 27.6492 23.535 21.423 23.423C21.535 29.6492 26.5614 34.6755 32.7876 34.7876ZM21.423 46.577C27.6492 46.465 32.6755 41.4386 32.7876 35.2124C26.5614 35.3245 21.535 40.3508 21.423 46.577Z" fill="url(#paint6_radial_1095_3858)" fill-opacity="0.3"/>
<path fill-rule="evenodd" clip-rule="evenodd" d="M57 37.2496C55.947 42.8018 51.069 47 45.2105 47C45.0943 47 45 46.9057 45 46.7895C45 40.931 49.1982 36.053 54.7504 35C49.1982 33.947 45 29.069 45 23.2105C45 23.0943 45.0943 23 45.2105 23C51.069 23 55.947 27.1982 57 32.7504C58.053 27.1982 62.931 23 68.7895 23C68.9057 23 69 23.0943 69 23.2105C69 29.069 64.8018 33.947 59.2496 35C64.8018 36.053 69 40.931 69 46.7895C69 46.9057 68.9057 47 68.7895 47C62.931 47 58.053 42.8018 57 37.2496ZM57.2124 34.7876C57.3245 28.5614 62.3508 23.535 68.577 23.423C68.465 29.6492 63.4386 34.6755 57.2124 34.7876ZM68.577 46.577C62.3508 46.465 57.3245 41.4386 57.2124 35.2124C63.4386 35.3245 68.465 40.3508 68.577 46.577ZM56.7876 34.7876C56.6755 28.5614 51.6492 23.535 45.423 23.423C45.535 29.6492 50.5614 34.6755 56.7876 34.7876ZM45.423 46.577C51.6492 46.465 56.6755 41.4386 56.7876 35.2124C50.5614 35.3245 45.535 40.3508 45.423 46.577Z" fill="url(#paint7_radial_1095_3858)" fill-opacity="0.3"/>
<path fill-rule="evenodd" clip-rule="evenodd" d="M81 37.2496C79.947 42.8018 75.069 47 69.2105 47C69.0943 47 69 46.9057 69 46.7895C69 40.931 73.1982 36.053 78.7504 35C73.1982 33.947 69 29.069 69 23.2105C69 23.0943 69.0943 23 69.2105 23C75.069 23 79.947 27.1982 81 32.7504C82.053 27.1982 86.931 23 92.7895 23C92.9057 23 93 23.0943 93 23.2105C93 29.069 88.8018 33.947 83.2496 35C88.8018 36.053 93 40.931 93 46.7895C93 46.9057 92.9057 47 92.7895 47C86.931 47 82.053 42.8018 81 37.2496ZM81.2124 34.7876C81.3245 28.5614 86.3508 23.535 92.577 23.423C92.465 29.6492 87.4386 34.6755 81.2124 34.7876ZM92.577 46.577C86.3508 46.465 81.3245 41.4386 81.2124 35.2124C87.4386 35.3245 92.465 40.3508 92.577 46.577ZM80.7876 34.7876C80.6755 28.5614 75.6492 23.535 69.423 23.423C69.535 29.6492 74.5614 34.6755 80.7876 34.7876ZM69.423 46.577C75.6492 46.465 80.6755 41.4386 80.7876 35.2124C74.5614 35.3245 69.535 40.3508 69.423 46.577Z" fill="url(#paint8_radial_1095_3858)" fill-opacity="0.3"/>
<path fill-rule="evenodd" clip-rule="evenodd" d="M9 56.7504C7.94698 51.1982 3.06903 47 -2.78947 47C-2.90574 47 -3 47.0943 -3 47.2105C-3 53.069 1.19824 57.947 6.75036 59C1.19824 60.053 -3 64.931 -3 70.7895C-3 70.9057 -2.90574 71 -2.78947 71C3.06903 71 7.94698 66.8018 9 61.2496C10.053 66.8018 14.931 71 20.7895 71C20.9057 71 21 70.9057 21 70.7895C21 64.931 16.8018 60.053 11.2496 59C16.8018 57.947 21 53.069 21 47.2105C21 47.0943 20.9057 47 20.7895 47C14.931 47 10.053 51.1982 9 56.7504ZM9.21244 59.2124C9.32446 65.4386 14.3508 70.465 20.577 70.577C20.465 64.3508 15.4386 59.3245 9.21244 59.2124ZM20.577 47.423C14.3508 47.535 9.32446 52.5614 9.21244 58.7876C15.4386 58.6755 20.465 53.6492 20.577 47.423ZM8.78756 59.2124C8.67554 65.4386 3.64916 70.465 -2.57704 70.577C-2.46502 64.3508 2.56137 59.3245 8.78756 59.2124ZM-2.57704 47.423C3.64916 47.535 8.67554 52.5614 8.78756 58.7876C2.56137 58.6755 -2.46502 53.6492 -2.57704 47.423Z" fill="url(#paint9_radial_1095_3858)" fill-opacity="0.3"/>
<path fill-rule="evenodd" clip-rule="evenodd" d="M33 56.7504C31.947 51.1982 27.069 47 21.2105 47C21.0943 47 21 47.0943 21 47.2105C21 53.069 25.1982 57.947 30.7504 59C25.1982 60.053 21 64.931 21 70.7895C21 70.9057 21.0943 71 21.2105 71C27.069 71 31.947 66.8018 33 61.2496C34.053 66.8018 38.931 71 44.7895 71C44.9057 71 45 70.9057 45 70.7895C45 64.931 40.8018 60.053 35.2496 59C40.8018 57.947 45 53.069 45 47.2105C45 47.0943 44.9057 47 44.7895 47C38.931 47 34.053 51.1982 33 56.7504ZM33.2124 59.2124C33.3245 65.4386 38.3508 70.465 44.577 70.577C44.465 64.3508 39.4386 59.3245 33.2124 59.2124ZM44.577 47.423C38.3508 47.535 33.3245 52.5614 33.2124 58.7876C39.4386 58.6755 44.465 53.6492 44.577 47.423ZM32.7876 59.2124C32.6755 65.4386 27.6492 70.465 21.423 70.577C21.535 64.3508 26.5614 59.3245 32.7876 59.2124ZM21.423 47.423C27.6492 47.535 32.6755 52.5614 32.7876 58.7876C26.5614 58.6755 21.535 53.6492 21.423 47.423Z" fill="url(#paint10_radial_1095_3858)" fill-opacity="0.3"/>
<path fill-rule="evenodd" clip-rule="evenodd" d="M57 56.7504C55.947 51.1982 51.069 47 45.2105 47C45.0943 47 45 47.0943 45 47.2105C45 53.069 49.1982 57.947 54.7504 59C49.1982 60.053 45 64.931 45 70.7895C45 70.9057 45.0943 71 45.2105 71C51.069 71 55.947 66.8018 57 61.2496C58.053 66.8018 62.931 71 68.7895 71C68.9057 71 69 70.9057 69 70.7895C69 64.931 64.8018 60.053 59.2496 59C64.8018 57.947 69 53.069 69 47.2105C69 47.0943 68.9057 47 68.7895 47C62.931 47 58.053 51.1982 57 56.7504ZM57.2124 59.2124C57.3245 65.4386 62.3508 70.465 68.577 70.577C68.465 64.3508 63.4386 59.3245 57.2124 59.2124ZM68.577 47.423C62.3508 47.535 57.3245 52.5614 57.2124 58.7876C63.4386 58.6755 68.465 53.6492 68.577 47.423ZM56.7876 59.2124C56.6755 65.4386 51.6492 70.465 45.423 70.577C45.535 64.3508 50.5614 59.3245 56.7876 59.2124ZM45.423 47.423C51.6492 47.535 56.6755 52.5614 56.7876 58.7876C50.5614 58.6755 45.535 53.6492 45.423 47.423Z" fill="url(#paint11_radial_1095_3858)" fill-opacity="0.3"/>
<path fill-rule="evenodd" clip-rule="evenodd" d="M81 56.7504C79.947 51.1982 75.069 47 69.2105 47C69.0943 47 69 47.0943 69 47.2105C69 53.069 73.1982 57.947 78.7504 59C73.1982 60.053 69 64.931 69 70.7895C69 70.9057 69.0943 71 69.2105 71C75.069 71 79.947 66.8018 81 61.2496C82.053 66.8018 86.931 71 92.7895 71C92.9057 71 93 70.9057 93 70.7895C93 64.931 88.8018 60.053 83.2496 59C88.8018 57.947 93 53.069 93 47.2105C93 47.0943 92.9057 47 92.7895 47C86.931 47 82.053 51.1982 81 56.7504ZM81.2124 59.2124C81.3245 65.4386 86.3508 70.465 92.577 70.577C92.465 64.3508 87.4386 59.3245 81.2124 59.2124ZM92.577 47.423C86.3508 47.535 81.3245 52.5614 81.2124 58.7876C87.4386 58.6755 92.465 53.6492 92.577 47.423ZM80.7876 59.2124C80.6755 65.4386 75.6492 70.465 69.423 70.577C69.535 64.3508 74.5614 59.3245 80.7876 59.2124ZM69.423 47.423C75.6492 47.535 80.6755 52.5614 80.7876 58.7876C74.5614 58.6755 69.535 53.6492 69.423 47.423Z" fill="url(#paint12_radial_1095_3858)" fill-opacity="0.3"/>
<path fill-rule="evenodd" clip-rule="evenodd" d="M9 80.7504C7.94698 75.1982 3.06903 71 -2.78947 71C-2.90574 71 -3 71.0943 -3 71.2105C-3 77.069 1.19824 81.947 6.75036 83C1.19824 84.053 -3 88.931 -3 94.7895C-3 94.9057 -2.90574 95 -2.78947 95C3.06903 95 7.94698 90.8018 9 85.2496C10.053 90.8018 14.931 95 20.7895 95C20.9057 95 21 94.9057 21 94.7895C21 88.931 16.8018 84.053 11.2496 83C16.8018 81.947 21 77.069 21 71.2105C21 71.0943 20.9057 71 20.7895 71C14.931 71 10.053 75.1982 9 80.7504ZM9.21244 83.2124C9.32446 89.4386 14.3508 94.465 20.577 94.577C20.465 88.3508 15.4386 83.3245 9.21244 83.2124ZM20.577 71.423C14.3508 71.535 9.32446 76.5614 9.21244 82.7876C15.4386 82.6755 20.465 77.6492 20.577 71.423ZM8.78756 83.2124C8.67554 89.4386 3.64916 94.465 -2.57704 94.577C-2.46502 88.3508 2.56137 83.3245 8.78756 83.2124ZM-2.57704 71.423C3.64916 71.535 8.67554 76.5614 8.78756 82.7876C2.56137 82.6755 -2.46502 77.6492 -2.57704 71.423Z" fill="url(#paint13_radial_1095_3858)" fill-opacity="0.3"/>
<path fill-rule="evenodd" clip-rule="evenodd" d="M33 80.7504C31.947 75.1982 27.069 71 21.2105 71C21.0943 71 21 71.0943 21 71.2105C21 77.069 25.1982 81.947 30.7504 83C25.1982 84.053 21 88.931 21 94.7895C21 94.9057 21.0943 95 21.2105 95C27.069 95 31.947 90.8018 33 85.2496C34.053 90.8018 38.931 95 44.7895 95C44.9057 95 45 94.9057 45 94.7895C45 88.931 40.8018 84.053 35.2496 83C40.8018 81.947 45 77.069 45 71.2105C45 71.0943 44.9057 71 44.7895 71C38.931 71 34.053 75.1982 33 80.7504ZM33.2124 83.2124C33.3245 89.4386 38.3508 94.465 44.577 94.577C44.465 88.3508 39.4386 83.3245 33.2124 83.2124ZM44.577 71.423C38.3508 71.535 33.3245 76.5614 33.2124 82.7876C39.4386 82.6755 44.465 77.6492 44.577 71.423ZM32.7876 83.2124C32.6755 89.4386 27.6492 94.465 21.423 94.577C21.535 88.3508 26.5614 83.3245 32.7876 83.2124ZM21.423 71.423C27.6492 71.535 32.6755 76.5614 32.7876 82.7876C26.5614 82.6755 21.535 77.6492 21.423 71.423Z" fill="url(#paint14_radial_1095_3858)" fill-opacity="0.3"/>
<path fill-rule="evenodd" clip-rule="evenodd" d="M57 80.7504C55.947 75.1982 51.069 71 45.2105 71C45.0943 71 45 71.0943 45 71.2105C45 77.069 49.1982 81.947 54.7504 83C49.1982 84.053 45 88.931 45 94.7895C45 94.9057 45.0943 95 45.2105 95C51.069 95 55.947 90.8018 57 85.2496C58.053 90.8018 62.931 95 68.7895 95C68.9057 95 69 94.9057 69 94.7895C69 88.931 64.8018 84.053 59.2496 83C64.8018 81.947 69 77.069 69 71.2105C69 71.0943 68.9057 71 68.7895 71C62.931 71 58.053 75.1982 57 80.7504ZM57.2124 83.2124C57.3245 89.4386 62.3508 94.465 68.577 94.577C68.465 88.3508 63.4386 83.3245 57.2124 83.2124ZM68.577 71.423C62.3508 71.535 57.3245 76.5614 57.2124 82.7876C63.4386 82.6755 68.465 77.6492 68.577 71.423ZM56.7876 83.2124C56.6755 89.4386 51.6492 94.465 45.423 94.577C45.535 88.3508 50.5614 83.3245 56.7876 83.2124ZM45.423 71.423C51.6492 71.535 56.6755 76.5614 56.7876 82.7876C50.5614 82.6755 45.535 77.6492 45.423 71.423Z" fill="url(#paint15_radial_1095_3858)" fill-opacity="0.3"/>
<path fill-rule="evenodd" clip-rule="evenodd" d="M81 80.7504C79.947 75.1982 75.069 71 69.2105 71C69.0943 71 69 71.0943 69 71.2105C69 77.069 73.1982 81.947 78.7504 83C73.1982 84.053 69 88.931 69 94.7895C69 94.9057 69.0943 95 69.2105 95C75.069 95 79.947 90.8018 81 85.2496C82.053 90.8018 86.931 95 92.7895 95C92.9057 95 93 94.9057 93 94.7895C93 88.931 88.8018 84.053 83.2496 83C88.8018 81.947 93 77.069 93 71.2105C93 71.0943 92.9057 71 92.7895 71C86.931 71 82.053 75.1982 81 80.7504ZM81.2124 83.2124C81.3245 89.4386 86.3508 94.465 92.577 94.577C92.465 88.3508 87.4386 83.3245 81.2124 83.2124ZM92.577 71.423C86.3508 71.535 81.3245 76.5614 81.2124 82.7876C87.4386 82.6755 92.465 77.6492 92.577 71.423ZM80.7876 83.2124C80.6755 89.4386 75.6492 94.465 69.423 94.577C69.535 88.3508 74.5614 83.3245 80.7876 83.2124ZM69.423 71.423C75.6492 71.535 80.6755 76.5614 80.7876 82.7876C74.5614 82.6755 69.535 77.6492 69.423 71.423Z" fill="url(#paint16_radial_1095_3858)" fill-opacity="0.3"/>
<path fill-rule="evenodd" clip-rule="evenodd" d="M105 8.75036C103.947 3.19824 99.069 -1 93.2105 -1C93.0943 -1 93 -0.905744 93 -0.789474C93 5.06903 97.1982 9.94698 102.75 11C97.1982 12.053 93 16.931 93 22.7895C93 22.9057 93.0943 23 93.2105 23C99.069 23 103.947 18.8018 105 13.2496C106.053 18.8018 110.931 23 116.789 23C116.906 23 117 22.9057 117 22.7895C117 16.931 112.802 12.053 107.25 11C112.802 9.94698 117 5.06903 117 -0.789474C117 -0.905744 116.906 -1 116.789 -1C110.931 -1 106.053 3.19824 105 8.75036ZM105.212 11.2124C105.324 17.4386 110.351 22.465 116.577 22.577C116.465 16.3508 111.439 11.3245 105.212 11.2124ZM116.577 -0.577037C110.351 -0.465015 105.324 4.56137 105.212 10.7876C111.439 10.6755 116.465 5.64916 116.577 -0.577037ZM104.788 11.2124C104.676 17.4386 99.6492 22.465 93.423 22.577C93.535 16.3508 98.5614 11.3245 104.788 11.2124ZM93.423 -0.577038C99.6492 -0.465016 104.676 4.56137 104.788 10.7876C98.5614 10.6755 93.535 5.64916 93.423 -0.577038Z" fill="url(#paint17_radial_1095_3858)" fill-opacity="0.3"/>
<path fill-rule="evenodd" clip-rule="evenodd" d="M129 8.75036C127.947 3.19824 123.069 -1 117.211 -1C117.094 -1 117 -0.905744 117 -0.789474C117 5.06903 121.198 9.94698 126.75 11C121.198 12.053 117 16.931 117 22.7895C117 22.9057 117.094 23 117.211 23C123.069 23 127.947 18.8018 129 13.2496C130.053 18.8018 134.931 23 140.789 23C140.906 23 141 22.9057 141 22.7895C141 16.931 136.802 12.053 131.25 11C136.802 9.94698 141 5.06903 141 -0.789474C141 -0.905744 140.906 -1 140.789 -1C134.931 -1 130.053 3.19824 129 8.75036ZM129.212 11.2124C129.324 17.4386 134.351 22.465 140.577 22.577C140.465 16.3508 135.439 11.3245 129.212 11.2124ZM140.577 -0.577037C134.351 -0.465015 129.324 4.56137 129.212 10.7876C135.439 10.6755 140.465 5.64916 140.577 -0.577037ZM128.788 11.2124C128.676 17.4386 123.649 22.465 117.423 22.577C117.535 16.3508 122.561 11.3245 128.788 11.2124ZM117.423 -0.577038C123.649 -0.465016 128.676 4.56137 128.788 10.7876C122.561 10.6755 117.535 5.64916 117.423 -0.577038Z" fill="url(#paint18_radial_1095_3858)" fill-opacity="0.3"/>
<path fill-rule="evenodd" clip-rule="evenodd" d="M153 8.75036C151.947 3.19824 147.069 -1 141.211 -1C141.094 -1 141 -0.905744 141 -0.789474C141 5.06903 145.198 9.94698 150.75 11C145.198 12.053 141 16.931 141 22.7895C141 22.9057 141.094 23 141.211 23C147.069 23 151.947 18.8018 153 13.2496C154.053 18.8018 158.931 23 164.789 23C164.906 23 165 22.9057 165 22.7895C165 16.931 160.802 12.053 155.25 11C160.802 9.94698 165 5.06903 165 -0.789474C165 -0.905744 164.906 -1 164.789 -1C158.931 -1 154.053 3.19824 153 8.75036ZM153.212 11.2124C153.324 17.4386 158.351 22.465 164.577 22.577C164.465 16.3508 159.439 11.3245 153.212 11.2124ZM164.577 -0.577037C158.351 -0.465015 153.324 4.56137 153.212 10.7876C159.439 10.6755 164.465 5.64916 164.577 -0.577037ZM152.788 11.2124C152.676 17.4386 147.649 22.465 141.423 22.577C141.535 16.3508 146.561 11.3245 152.788 11.2124ZM141.423 -0.577038C147.649 -0.465016 152.676 4.56137 152.788 10.7876C146.561 10.6755 141.535 5.64916 141.423 -0.577038Z" fill="url(#paint19_radial_1095_3858)" fill-opacity="0.3"/>
<path fill-rule="evenodd" clip-rule="evenodd" d="M177 8.75036C175.947 3.19824 171.069 -1 165.211 -1C165.094 -1 165 -0.905744 165 -0.789474C165 5.06903 169.198 9.94698 174.75 11C169.198 12.053 165 16.931 165 22.7895C165 22.9057 165.094 23 165.211 23C171.069 23 175.947 18.8018 177 13.2496C178.053 18.8018 182.931 23 188.789 23C188.906 23 189 22.9057 189 22.7895C189 16.931 184.802 12.053 179.25 11C184.802 9.94698 189 5.06903 189 -0.789474C189 -0.905744 188.906 -1 188.789 -1C182.931 -1 178.053 3.19824 177 8.75036ZM177.212 11.2124C177.324 17.4386 182.351 22.465 188.577 22.577C188.465 16.3508 183.439 11.3245 177.212 11.2124ZM188.577 -0.577037C182.351 -0.465015 177.324 4.56137 177.212 10.7876C183.439 10.6755 188.465 5.64916 188.577 -0.577037ZM176.788 11.2124C176.676 17.4386 171.649 22.465 165.423 22.577C165.535 16.3508 170.561 11.3245 176.788 11.2124ZM165.423 -0.577038C171.649 -0.465016 176.676 4.56137 176.788 10.7876C170.561 10.6755 165.535 5.64916 165.423 -0.577038Z" fill="url(#paint20_radial_1095_3858)" fill-opacity="0.3"/>
<path fill-rule="evenodd" clip-rule="evenodd" d="M201 8.75036C199.947 3.19824 195.069 -1 189.211 -1C189.094 -1 189 -0.905744 189 -0.789474C189 5.06903 193.198 9.94698 198.75 11C193.198 12.053 189 16.931 189 22.7895C189 22.9057 189.094 23 189.211 23C195.069 23 199.947 18.8018 201 13.2496C202.053 18.8018 206.931 23 212.789 23C212.906 23 213 22.9057 213 22.7895C213 16.931 208.802 12.053 203.25 11C208.802 9.94698 213 5.06903 213 -0.789474C213 -0.905744 212.906 -1 212.789 -1C206.931 -1 202.053 3.19824 201 8.75036ZM201.212 11.2124C201.324 17.4386 206.351 22.465 212.577 22.577C212.465 16.3508 207.439 11.3245 201.212 11.2124ZM212.577 -0.577037C206.351 -0.465015 201.324 4.56137 201.212 10.7876C207.439 10.6755 212.465 5.64916 212.577 -0.577037ZM200.788 11.2124C200.676 17.4386 195.649 22.465 189.423 22.577C189.535 16.3508 194.561 11.3245 200.788 11.2124ZM189.423 -0.577038C195.649 -0.465016 200.676 4.56137 200.788 10.7876C194.561 10.6755 189.535 5.64916 189.423 -0.577038Z" fill="url(#paint21_radial_1095_3858)" fill-opacity="0.3"/>
<path fill-rule="evenodd" clip-rule="evenodd" d="M225 8.75036C223.947 3.19824 219.069 -1 213.211 -1C213.094 -1 213 -0.905744 213 -0.789474C213 5.06903 217.198 9.94698 222.75 11C217.198 12.053 213 16.931 213 22.7895C213 22.9057 213.094 23 213.211 23C219.069 23 223.947 18.8018 225 13.2496C226.053 18.8018 230.931 23 236.789 23C236.906 23 237 22.9057 237 22.7895C237 16.931 232.802 12.053 227.25 11C232.802 9.94698 237 5.06903 237 -0.789474C237 -0.905744 236.906 -1 236.789 -1C230.931 -1 226.053 3.19824 225 8.75036ZM225.212 11.2124C225.324 17.4386 230.351 22.465 236.577 22.577C236.465 16.3508 231.439 11.3245 225.212 11.2124ZM236.577 -0.577037C230.351 -0.465015 225.324 4.56137 225.212 10.7876C231.439 10.6755 236.465 5.64916 236.577 -0.577037ZM224.788 11.2124C224.676 17.4386 219.649 22.465 213.423 22.577C213.535 16.3508 218.561 11.3245 224.788 11.2124ZM213.423 -0.577038C219.649 -0.465016 224.676 4.56137 224.788 10.7876C218.561 10.6755 213.535 5.64916 213.423 -0.577038Z" fill="url(#paint22_radial_1095_3858)" fill-opacity="0.3"/>
<path fill-rule="evenodd" clip-rule="evenodd" d="M105 37.2496C103.947 42.8018 99.069 47 93.2105 47C93.0943 47 93 46.9057 93 46.7895C93 40.931 97.1982 36.053 102.75 35C97.1982 33.947 93 29.069 93 23.2105C93 23.0943 93.0943 23 93.2105 23C99.069 23 103.947 27.1982 105 32.7504C106.053 27.1982 110.931 23 116.789 23C116.906 23 117 23.0943 117 23.2105C117 29.069 112.802 33.947 107.25 35C112.802 36.053 117 40.931 117 46.7895C117 46.9057 116.906 47 116.789 47C110.931 47 106.053 42.8018 105 37.2496ZM105.212 34.7876C105.324 28.5614 110.351 23.535 116.577 23.423C116.465 29.6492 111.439 34.6755 105.212 34.7876ZM116.577 46.577C110.351 46.465 105.324 41.4386 105.212 35.2124C111.439 35.3245 116.465 40.3508 116.577 46.577ZM104.788 34.7876C104.676 28.5614 99.6492 23.535 93.423 23.423C93.535 29.6492 98.5614 34.6755 104.788 34.7876ZM93.423 46.577C99.6492 46.465 104.676 41.4386 104.788 35.2124C98.5614 35.3245 93.535 40.3508 93.423 46.577Z" fill="url(#paint23_radial_1095_3858)" fill-opacity="0.3"/>
<path fill-rule="evenodd" clip-rule="evenodd" d="M129 37.2496C127.947 42.8018 123.069 47 117.211 47C117.094 47 117 46.9057 117 46.7895C117 40.931 121.198 36.053 126.75 35C121.198 33.947 117 29.069 117 23.2105C117 23.0943 117.094 23 117.211 23C123.069 23 127.947 27.1982 129 32.7504C130.053 27.1982 134.931 23 140.789 23C140.906 23 141 23.0943 141 23.2105C141 29.069 136.802 33.947 131.25 35C136.802 36.053 141 40.931 141 46.7895C141 46.9057 140.906 47 140.789 47C134.931 47 130.053 42.8018 129 37.2496ZM129.212 34.7876C129.324 28.5614 134.351 23.535 140.577 23.423C140.465 29.6492 135.439 34.6755 129.212 34.7876ZM140.577 46.577C134.351 46.465 129.324 41.4386 129.212 35.2124C135.439 35.3245 140.465 40.3508 140.577 46.577ZM128.788 34.7876C128.676 28.5614 123.649 23.535 117.423 23.423C117.535 29.6492 122.561 34.6755 128.788 34.7876ZM117.423 46.577C123.649 46.465 128.676 41.4386 128.788 35.2124C122.561 35.3245 117.535 40.3508 117.423 46.577Z" fill="url(#paint24_radial_1095_3858)" fill-opacity="0.3"/>
<path fill-rule="evenodd" clip-rule="evenodd" d="M153 37.2496C151.947 42.8018 147.069 47 141.211 47C141.094 47 141 46.9057 141 46.7895C141 40.931 145.198 36.053 150.75 35C145.198 33.947 141 29.069 141 23.2105C141 23.0943 141.094 23 141.211 23C147.069 23 151.947 27.1982 153 32.7504C154.053 27.1982 158.931 23 164.789 23C164.906 23 165 23.0943 165 23.2105C165 29.069 160.802 33.947 155.25 35C160.802 36.053 165 40.931 165 46.7895C165 46.9057 164.906 47 164.789 47C158.931 47 154.053 42.8018 153 37.2496ZM153.212 34.7876C153.324 28.5614 158.351 23.535 164.577 23.423C164.465 29.6492 159.439 34.6755 153.212 34.7876ZM164.577 46.577C158.351 46.465 153.324 41.4386 153.212 35.2124C159.439 35.3245 164.465 40.3508 164.577 46.577ZM152.788 34.7876C152.676 28.5614 147.649 23.535 141.423 23.423C141.535 29.6492 146.561 34.6755 152.788 34.7876ZM141.423 46.577C147.649 46.465 152.676 41.4386 152.788 35.2124C146.561 35.3245 141.535 40.3508 141.423 46.577Z" fill="url(#paint25_radial_1095_3858)" fill-opacity="0.3"/>
<path fill-rule="evenodd" clip-rule="evenodd" d="M201 37.2496C199.947 42.8018 195.069 47 189.211 47C189.094 47 189 46.9057 189 46.7895C189 40.931 193.198 36.053 198.75 35C193.198 33.947 189 29.069 189 23.2105C189 23.0943 189.094 23 189.211 23C195.069 23 199.947 27.1982 201 32.7504C202.053 27.1982 206.931 23 212.789 23C212.906 23 213 23.0943 213 23.2105C213 29.069 208.802 33.947 203.25 35C208.802 36.053 213 40.931 213 46.7895C213 46.9057 212.906 47 212.789 47C206.931 47 202.053 42.8018 201 37.2496ZM201.212 34.7876C201.324 28.5614 206.351 23.535 212.577 23.423C212.465 29.6492 207.439 34.6755 201.212 34.7876ZM212.577 46.577C206.351 46.465 201.324 41.4386 201.212 35.2124C207.439 35.3245 212.465 40.3508 212.577 46.577ZM200.788 34.7876C200.676 28.5614 195.649 23.535 189.423 23.423C189.535 29.6492 194.561 34.6755 200.788 34.7876ZM189.423 46.577C195.649 46.465 200.676 41.4386 200.788 35.2124C194.561 35.3245 189.535 40.3508 189.423 46.577Z" fill="url(#paint26_radial_1095_3858)" fill-opacity="0.3"/>
<path fill-rule="evenodd" clip-rule="evenodd" d="M177 37.2496C175.947 42.8018 171.069 47 165.211 47C165.094 47 165 46.9057 165 46.7895C165 40.931 169.198 36.053 174.75 35C169.198 33.947 165 29.069 165 23.2105C165 23.0943 165.094 23 165.211 23C171.069 23 175.947 27.1982 177 32.7504C178.053 27.1982 182.931 23 188.789 23C188.906 23 189 23.0943 189 23.2105C189 29.069 184.802 33.947 179.25 35C184.802 36.053 189 40.931 189 46.7895C189 46.9057 188.906 47 188.789 47C182.931 47 178.053 42.8018 177 37.2496ZM177.212 34.7876C177.324 28.5614 182.351 23.535 188.577 23.423C188.465 29.6492 183.439 34.6755 177.212 34.7876ZM188.577 46.577C182.351 46.465 177.324 41.4386 177.212 35.2124C183.439 35.3245 188.465 40.3508 188.577 46.577ZM176.788 34.7876C176.676 28.5614 171.649 23.535 165.423 23.423C165.535 29.6492 170.561 34.6755 176.788 34.7876ZM165.423 46.577C171.649 46.465 176.676 41.4386 176.788 35.2124C170.561 35.3245 165.535 40.3508 165.423 46.577Z" fill="url(#paint27_radial_1095_3858)" fill-opacity="0.3"/>
<path fill-rule="evenodd" clip-rule="evenodd" d="M225 37.2496C223.947 42.8018 219.069 47 213.211 47C213.094 47 213 46.9057 213 46.7895C213 40.931 217.198 36.053 222.75 35C217.198 33.947 213 29.069 213 23.2105C213 23.0943 213.094 23 213.211 23C219.069 23 223.947 27.1982 225 32.7504C226.053 27.1982 230.931 23 236.789 23C236.906 23 237 23.0943 237 23.2105C237 29.069 232.802 33.947 227.25 35C232.802 36.053 237 40.931 237 46.7895C237 46.9057 236.906 47 236.789 47C230.931 47 226.053 42.8018 225 37.2496ZM225.212 34.7876C225.324 28.5614 230.351 23.535 236.577 23.423C236.465 29.6492 231.439 34.6755 225.212 34.7876ZM236.577 46.577C230.351 46.465 225.324 41.4386 225.212 35.2124C231.439 35.3245 236.465 40.3508 236.577 46.577ZM224.788 34.7876C224.676 28.5614 219.649 23.535 213.423 23.423C213.535 29.6492 218.561 34.6755 224.788 34.7876ZM213.423 46.577C219.649 46.465 224.676 41.4386 224.788 35.2124C218.561 35.3245 213.535 40.3508 213.423 46.577Z" fill="url(#paint28_radial_1095_3858)" fill-opacity="0.3"/>
<path fill-rule="evenodd" clip-rule="evenodd" d="M105 56.7504C103.947 51.1982 99.069 47 93.2105 47C93.0943 47 93 47.0943 93 47.2105C93 53.069 97.1982 57.947 102.75 59C97.1982 60.053 93 64.931 93 70.7895C93 70.9057 93.0943 71 93.2105 71C99.069 71 103.947 66.8018 105 61.2496C106.053 66.8018 110.931 71 116.789 71C116.906 71 117 70.9057 117 70.7895C117 64.931 112.802 60.053 107.25 59C112.802 57.947 117 53.069 117 47.2105C117 47.0943 116.906 47 116.789 47C110.931 47 106.053 51.1982 105 56.7504ZM105.212 59.2124C105.324 65.4386 110.351 70.465 116.577 70.577C116.465 64.3508 111.439 59.3245 105.212 59.2124ZM116.577 47.423C110.351 47.535 105.324 52.5614 105.212 58.7876C111.439 58.6755 116.465 53.6492 116.577 47.423ZM104.788 59.2124C104.676 65.4386 99.6492 70.465 93.423 70.577C93.535 64.3508 98.5614 59.3245 104.788 59.2124ZM93.423 47.423C99.6492 47.535 104.676 52.5614 104.788 58.7876C98.5614 58.6755 93.535 53.6492 93.423 47.423Z" fill="url(#paint29_radial_1095_3858)" fill-opacity="0.3"/>
<path fill-rule="evenodd" clip-rule="evenodd" d="M129 56.7504C127.947 51.1982 123.069 47 117.211 47C117.094 47 117 47.0943 117 47.2105C117 53.069 121.198 57.947 126.75 59C121.198 60.053 117 64.931 117 70.7895C117 70.9057 117.094 71 117.211 71C123.069 71 127.947 66.8018 129 61.2496C130.053 66.8018 134.931 71 140.789 71C140.906 71 141 70.9057 141 70.7895C141 64.931 136.802 60.053 131.25 59C136.802 57.947 141 53.069 141 47.2105C141 47.0943 140.906 47 140.789 47C134.931 47 130.053 51.1982 129 56.7504ZM129.212 59.2124C129.324 65.4386 134.351 70.465 140.577 70.577C140.465 64.3508 135.439 59.3245 129.212 59.2124ZM140.577 47.423C134.351 47.535 129.324 52.5614 129.212 58.7876C135.439 58.6755 140.465 53.6492 140.577 47.423ZM128.788 59.2124C128.676 65.4386 123.649 70.465 117.423 70.577C117.535 64.3508 122.561 59.3245 128.788 59.2124ZM117.423 47.423C123.649 47.535 128.676 52.5614 128.788 58.7876C122.561 58.6755 117.535 53.6492 117.423 47.423Z" fill="url(#paint30_radial_1095_3858)" fill-opacity="0.3"/>
<path fill-rule="evenodd" clip-rule="evenodd" d="M201 56.7504C199.947 51.1982 195.069 47 189.211 47C189.094 47 189 47.0943 189 47.2105C189 53.069 193.198 57.947 198.75 59C193.198 60.053 189 64.931 189 70.7895C189 70.9057 189.094 71 189.211 71C195.069 71 199.947 66.8018 201 61.2496C202.053 66.8018 206.931 71 212.789 71C212.906 71 213 70.9057 213 70.7895C213 64.931 208.802 60.053 203.25 59C208.802 57.947 213 53.069 213 47.2105C213 47.0943 212.906 47 212.789 47C206.931 47 202.053 51.1982 201 56.7504ZM201.212 59.2124C201.324 65.4386 206.351 70.465 212.577 70.577C212.465 64.3508 207.439 59.3245 201.212 59.2124ZM212.577 47.423C206.351 47.535 201.324 52.5614 201.212 58.7876C207.439 58.6755 212.465 53.6492 212.577 47.423ZM200.788 59.2124C200.676 65.4386 195.649 70.465 189.423 70.577C189.535 64.3508 194.561 59.3245 200.788 59.2124ZM189.423 47.423C195.649 47.535 200.676 52.5614 200.788 58.7876C194.561 58.6755 189.535 53.6492 189.423 47.423Z" fill="url(#paint31_radial_1095_3858)" fill-opacity="0.3"/>
<path fill-rule="evenodd" clip-rule="evenodd" d="M153 56.7504C151.947 51.1982 147.069 47 141.211 47C141.094 47 141 47.0943 141 47.2105C141 53.069 145.198 57.947 150.75 59C145.198 60.053 141 64.931 141 70.7895C141 70.9057 141.094 71 141.211 71C147.069 71 151.947 66.8018 153 61.2496C154.053 66.8018 158.931 71 164.789 71C164.906 71 165 70.9057 165 70.7895C165 64.931 160.802 60.053 155.25 59C160.802 57.947 165 53.069 165 47.2105C165 47.0943 164.906 47 164.789 47C158.931 47 154.053 51.1982 153 56.7504ZM153.212 59.2124C153.324 65.4386 158.351 70.465 164.577 70.577C164.465 64.3508 159.439 59.3245 153.212 59.2124ZM164.577 47.423C158.351 47.535 153.324 52.5614 153.212 58.7876C159.439 58.6755 164.465 53.6492 164.577 47.423ZM152.788 59.2124C152.676 65.4386 147.649 70.465 141.423 70.577C141.535 64.3508 146.561 59.3245 152.788 59.2124ZM141.423 47.423C147.649 47.535 152.676 52.5614 152.788 58.7876C146.561 58.6755 141.535 53.6492 141.423 47.423Z" fill="url(#paint32_radial_1095_3858)" fill-opacity="0.3"/>
<path fill-rule="evenodd" clip-rule="evenodd" d="M177 56.7504C175.947 51.1982 171.069 47 165.211 47C165.094 47 165 47.0943 165 47.2105C165 53.069 169.198 57.947 174.75 59C169.198 60.053 165 64.931 165 70.7895C165 70.9057 165.094 71 165.211 71C171.069 71 175.947 66.8018 177 61.2496C178.053 66.8018 182.931 71 188.789 71C188.906 71 189 70.9057 189 70.7895C189 64.931 184.802 60.053 179.25 59C184.802 57.947 189 53.069 189 47.2105C189 47.0943 188.906 47 188.789 47C182.931 47 178.053 51.1982 177 56.7504ZM177.212 59.2124C177.324 65.4386 182.351 70.465 188.577 70.577C188.465 64.3508 183.439 59.3245 177.212 59.2124ZM188.577 47.423C182.351 47.535 177.324 52.5614 177.212 58.7876C183.439 58.6755 188.465 53.6492 188.577 47.423ZM176.788 59.2124C176.676 65.4386 171.649 70.465 165.423 70.577C165.535 64.3508 170.561 59.3245 176.788 59.2124ZM165.423 47.423C171.649 47.535 176.676 52.5614 176.788 58.7876C170.561 58.6755 165.535 53.6492 165.423 47.423Z" fill="url(#paint33_radial_1095_3858)" fill-opacity="0.3"/>
<path fill-rule="evenodd" clip-rule="evenodd" d="M225 56.7504C223.947 51.1982 219.069 47 213.211 47C213.094 47 213 47.0943 213 47.2105C213 53.069 217.198 57.947 222.75 59C217.198 60.053 213 64.931 213 70.7895C213 70.9057 213.094 71 213.211 71C219.069 71 223.947 66.8018 225 61.2496C226.053 66.8018 230.931 71 236.789 71C236.906 71 237 70.9057 237 70.7895C237 64.931 232.802 60.053 227.25 59C232.802 57.947 237 53.069 237 47.2105C237 47.0943 236.906 47 236.789 47C230.931 47 226.053 51.1982 225 56.7504ZM225.212 59.2124C225.324 65.4386 230.351 70.465 236.577 70.577C236.465 64.3508 231.439 59.3245 225.212 59.2124ZM236.577 47.423C230.351 47.535 225.324 52.5614 225.212 58.7876C231.439 58.6755 236.465 53.6492 236.577 47.423ZM224.788 59.2124C224.676 65.4386 219.649 70.465 213.423 70.577C213.535 64.3508 218.561 59.3245 224.788 59.2124ZM213.423 47.423C219.649 47.535 224.676 52.5614 224.788 58.7876C218.561 58.6755 213.535 53.6492 213.423 47.423Z" fill="url(#paint34_radial_1095_3858)" fill-opacity="0.3"/>
<path fill-rule="evenodd" clip-rule="evenodd" d="M105 80.7504C103.947 75.1982 99.069 71 93.2105 71C93.0943 71 93 71.0943 93 71.2105C93 77.069 97.1982 81.947 102.75 83C97.1982 84.053 93 88.931 93 94.7895C93 94.9057 93.0943 95 93.2105 95C99.069 95 103.947 90.8018 105 85.2496C106.053 90.8018 110.931 95 116.789 95C116.906 95 117 94.9057 117 94.7895C117 88.931 112.802 84.053 107.25 83C112.802 81.947 117 77.069 117 71.2105C117 71.0943 116.906 71 116.789 71C110.931 71 106.053 75.1982 105 80.7504ZM105.212 83.2124C105.324 89.4386 110.351 94.465 116.577 94.577C116.465 88.3508 111.439 83.3245 105.212 83.2124ZM116.577 71.423C110.351 71.535 105.324 76.5614 105.212 82.7876C111.439 82.6755 116.465 77.6492 116.577 71.423ZM104.788 83.2124C104.676 89.4386 99.6492 94.465 93.423 94.577C93.535 88.3508 98.5614 83.3245 104.788 83.2124ZM93.423 71.423C99.6492 71.535 104.676 76.5614 104.788 82.7876C98.5614 82.6755 93.535 77.6492 93.423 71.423Z" fill="url(#paint35_radial_1095_3858)" fill-opacity="0.3"/>
<path fill-rule="evenodd" clip-rule="evenodd" d="M201 80.7504C199.947 75.1982 195.069 71 189.211 71C189.094 71 189 71.0943 189 71.2105C189 77.069 193.198 81.947 198.75 83C193.198 84.053 189 88.931 189 94.7895C189 94.9057 189.094 95 189.211 95C195.069 95 199.947 90.8018 201 85.2496C202.053 90.8018 206.931 95 212.789 95C212.906 95 213 94.9057 213 94.7895C213 88.931 208.802 84.053 203.25 83C208.802 81.947 213 77.069 213 71.2105C213 71.0943 212.906 71 212.789 71C206.931 71 202.053 75.1982 201 80.7504ZM201.212 83.2124C201.324 89.4386 206.351 94.465 212.577 94.577C212.465 88.3508 207.439 83.3245 201.212 83.2124ZM212.577 71.423C206.351 71.535 201.324 76.5614 201.212 82.7876C207.439 82.6755 212.465 77.6492 212.577 71.423ZM200.788 83.2124C200.676 89.4386 195.649 94.465 189.423 94.577C189.535 88.3508 194.561 83.3245 200.788 83.2124ZM189.423 71.423C195.649 71.535 200.676 76.5614 200.788 82.7876C194.561 82.6755 189.535 77.6492 189.423 71.423Z" fill="url(#paint36_radial_1095_3858)" fill-opacity="0.3"/>
<path fill-rule="evenodd" clip-rule="evenodd" d="M129 80.7504C127.947 75.1982 123.069 71 117.211 71C117.094 71 117 71.0943 117 71.2105C117 77.069 121.198 81.947 126.75 83C121.198 84.053 117 88.931 117 94.7895C117 94.9057 117.094 95 117.211 95C123.069 95 127.947 90.8018 129 85.2496C130.053 90.8018 134.931 95 140.789 95C140.906 95 141 94.9057 141 94.7895C141 88.931 136.802 84.053 131.25 83C136.802 81.947 141 77.069 141 71.2105C141 71.0943 140.906 71 140.789 71C134.931 71 130.053 75.1982 129 80.7504ZM129.212 83.2124C129.324 89.4386 134.351 94.465 140.577 94.577C140.465 88.3508 135.439 83.3245 129.212 83.2124ZM140.577 71.423C134.351 71.535 129.324 76.5614 129.212 82.7876C135.439 82.6755 140.465 77.6492 140.577 71.423ZM128.788 83.2124C128.676 89.4386 123.649 94.465 117.423 94.577C117.535 88.3508 122.561 83.3245 128.788 83.2124ZM117.423 71.423C123.649 71.535 128.676 76.5614 128.788 82.7876C122.561 82.6755 117.535 77.6492 117.423 71.423Z" fill="url(#paint37_radial_1095_3858)" fill-opacity="0.3"/>
<path fill-rule="evenodd" clip-rule="evenodd" d="M153 80.7504C151.947 75.1982 147.069 71 141.211 71C141.094 71 141 71.0943 141 71.2105C141 77.069 145.198 81.947 150.75 83C145.198 84.053 141 88.931 141 94.7895C141 94.9057 141.094 95 141.211 95C147.069 95 151.947 90.8018 153 85.2496C154.053 90.8018 158.931 95 164.789 95C164.906 95 165 94.9057 165 94.7895C165 88.931 160.802 84.053 155.25 83C160.802 81.947 165 77.069 165 71.2105C165 71.0943 164.906 71 164.789 71C158.931 71 154.053 75.1982 153 80.7504ZM153.212 83.2124C153.324 89.4386 158.351 94.465 164.577 94.577C164.465 88.3508 159.439 83.3245 153.212 83.2124ZM164.577 71.423C158.351 71.535 153.324 76.5614 153.212 82.7876C159.439 82.6755 164.465 77.6492 164.577 71.423ZM152.788 83.2124C152.676 89.4386 147.649 94.465 141.423 94.577C141.535 88.3508 146.561 83.3245 152.788 83.2124ZM141.423 71.423C147.649 71.535 152.676 76.5614 152.788 82.7876C146.561 82.6755 141.535 77.6492 141.423 71.423Z" fill="url(#paint38_radial_1095_3858)" fill-opacity="0.3"/>
<path fill-rule="evenodd" clip-rule="evenodd" d="M177 80.7504C175.947 75.1982 171.069 71 165.211 71C165.094 71 165 71.0943 165 71.2105C165 77.069 169.198 81.947 174.75 83C169.198 84.053 165 88.931 165 94.7895C165 94.9057 165.094 95 165.211 95C171.069 95 175.947 90.8018 177 85.2496C178.053 90.8018 182.931 95 188.789 95C188.906 95 189 94.9057 189 94.7895C189 88.931 184.802 84.053 179.25 83C184.802 81.947 189 77.069 189 71.2105C189 71.0943 188.906 71 188.789 71C182.931 71 178.053 75.1982 177 80.7504ZM177.212 83.2124C177.324 89.4386 182.351 94.465 188.577 94.577C188.465 88.3508 183.439 83.3245 177.212 83.2124ZM188.577 71.423C182.351 71.535 177.324 76.5614 177.212 82.7876C183.439 82.6755 188.465 77.6492 188.577 71.423ZM176.788 83.2124C176.676 89.4386 171.649 94.465 165.423 94.577C165.535 88.3508 170.561 83.3245 176.788 83.2124ZM165.423 71.423C171.649 71.535 176.676 76.5614 176.788 82.7876C170.561 82.6755 165.535 77.6492 165.423 71.423Z" fill="url(#paint39_radial_1095_3858)" fill-opacity="0.3"/>
<path fill-rule="evenodd" clip-rule="evenodd" d="M225 80.7504C223.947 75.1982 219.069 71 213.211 71C213.094 71 213 71.0943 213 71.2105C213 77.069 217.198 81.947 222.75 83C217.198 84.053 213 88.931 213 94.7895C213 94.9057 213.094 95 213.211 95C219.069 95 223.947 90.8018 225 85.2496C226.053 90.8018 230.931 95 236.789 95C236.906 95 237 94.9057 237 94.7895C237 88.931 232.802 84.053 227.25 83C232.802 81.947 237 77.069 237 71.2105C237 71.0943 236.906 71 236.789 71C230.931 71 226.053 75.1982 225 80.7504ZM225.212 83.2124C225.324 89.4386 230.351 94.465 236.577 94.577C236.465 88.3508 231.439 83.3245 225.212 83.2124ZM236.577 71.423C230.351 71.535 225.324 76.5614 225.212 82.7876C231.439 82.6755 236.465 77.6492 236.577 71.423ZM224.788 83.2124C224.676 89.4386 219.649 94.465 213.423 94.577C213.535 88.3508 218.561 83.3245 224.788 83.2124ZM213.423 71.423C219.649 71.535 224.676 76.5614 224.788 82.7876C218.561 82.6755 213.535 77.6492 213.423 71.423Z" fill="url(#paint40_radial_1095_3858)" fill-opacity="0.3"/>
</g>
<defs>
<linearGradient id="paint0_linear_1095_3858" x1="118.5" y1="0" x2="118.5" y2="121" gradientUnits="userSpaceOnUse">
<stop stop-color="white"/>
<stop offset="1" stop-color="white" stop-opacity="0"/>
</linearGradient>
<radialGradient id="paint1_radial_1095_3858" cx="0" cy="0" r="1" gradientUnits="userSpaceOnUse" gradientTransform="translate(9 11) rotate(90) scale(12)">
<stop stop-color="#6B37DF"/>
<stop offset="0.666667" stop-color="#6B37DF" stop-opacity="0.493333"/>
<stop offset="1" stop-color="white" stop-opacity="0.24"/>
</radialGradient>
<radialGradient id="paint2_radial_1095_3858" cx="0" cy="0" r="1" gradientUnits="userSpaceOnUse" gradientTransform="translate(33 11) rotate(90) scale(12)">
<stop stop-color="#6B37DF"/>
<stop offset="0.666667" stop-color="#6B37DF" stop-opacity="0.493333"/>
<stop offset="1" stop-color="white" stop-opacity="0.24"/>
</radialGradient>
<radialGradient id="paint3_radial_1095_3858" cx="0" cy="0" r="1" gradientUnits="userSpaceOnUse" gradientTransform="translate(57 11) rotate(90) scale(12)">
<stop stop-color="#6B37DF"/>
<stop offset="0.666667" stop-color="#6B37DF" stop-opacity="0.493333"/>
<stop offset="1" stop-color="white" stop-opacity="0.24"/>
</radialGradient>
<radialGradient id="paint4_radial_1095_3858" cx="0" cy="0" r="1" gradientUnits="userSpaceOnUse" gradientTransform="translate(81 11) rotate(90) scale(12)">
<stop stop-color="#6B37DF"/>
<stop offset="0.666667" stop-color="#6B37DF" stop-opacity="0.493333"/>
<stop offset="1" stop-color="white" stop-opacity="0.24"/>
</radialGradient>
<radialGradient id="paint5_radial_1095_3858" cx="0" cy="0" r="1" gradientUnits="userSpaceOnUse" gradientTransform="translate(9 35) rotate(-90) scale(12)">
<stop stop-color="#6B37DF"/>
<stop offset="0.666667" stop-color="#6B37DF" stop-opacity="0.493333"/>
<stop offset="1" stop-color="white" stop-opacity="0.24"/>
</radialGradient>
<radialGradient id="paint6_radial_1095_3858" cx="0" cy="0" r="1" gradientUnits="userSpaceOnUse" gradientTransform="translate(33 35) rotate(-90) scale(12)">
<stop stop-color="#6B37DF"/>
<stop offset="0.666667" stop-color="#6B37DF" stop-opacity="0.493333"/>
<stop offset="1" stop-color="white" stop-opacity="0.24"/>
</radialGradient>
<radialGradient id="paint7_radial_1095_3858" cx="0" cy="0" r="1" gradientUnits="userSpaceOnUse" gradientTransform="translate(57 35) rotate(-90) scale(12)">
<stop stop-color="#6B37DF"/>
<stop offset="0.666667" stop-color="#6B37DF" stop-opacity="0.493333"/>
<stop offset="1" stop-color="white" stop-opacity="0.24"/>
</radialGradient>
<radialGradient id="paint8_radial_1095_3858" cx="0" cy="0" r="1" gradientUnits="userSpaceOnUse" gradientTransform="translate(81 35) rotate(-90) scale(12)">
<stop stop-color="#6B37DF"/>
<stop offset="0.666667" stop-color="#6B37DF" stop-opacity="0.493333"/>
<stop offset="1" stop-color="white" stop-opacity="0.24"/>
</radialGradient>
<radialGradient id="paint9_radial_1095_3858" cx="0" cy="0" r="1" gradientUnits="userSpaceOnUse" gradientTransform="translate(9 59) rotate(90) scale(12)">
<stop stop-color="#6B37DF"/>
<stop offset="0.666667" stop-color="#6B37DF" stop-opacity="0.493333"/>
<stop offset="1" stop-color="white" stop-opacity="0.24"/>
</radialGradient>
<radialGradient id="paint10_radial_1095_3858" cx="0" cy="0" r="1" gradientUnits="userSpaceOnUse" gradientTransform="translate(33 59) rotate(90) scale(12)">
<stop stop-color="#6B37DF"/>
<stop offset="0.666667" stop-color="#6B37DF" stop-opacity="0.493333"/>
<stop offset="1" stop-color="white" stop-opacity="0.24"/>
</radialGradient>
<radialGradient id="paint11_radial_1095_3858" cx="0" cy="0" r="1" gradientUnits="userSpaceOnUse" gradientTransform="translate(57 59) rotate(90) scale(12)">
<stop stop-color="#6B37DF"/>
<stop offset="0.666667" stop-color="#6B37DF" stop-opacity="0.493333"/>
<stop offset="1" stop-color="white" stop-opacity="0.24"/>
</radialGradient>
<radialGradient id="paint12_radial_1095_3858" cx="0" cy="0" r="1" gradientUnits="userSpaceOnUse" gradientTransform="translate(81 59) rotate(90) scale(12)">
<stop stop-color="#6B37DF"/>
<stop offset="0.666667" stop-color="#6B37DF" stop-opacity="0.493333"/>
<stop offset="1" stop-color="white" stop-opacity="0.24"/>
</radialGradient>
<radialGradient id="paint13_radial_1095_3858" cx="0" cy="0" r="1" gradientUnits="userSpaceOnUse" gradientTransform="translate(9 83) rotate(90) scale(12)">
<stop stop-color="#6B37DF"/>
<stop offset="0.666667" stop-color="#6B37DF" stop-opacity="0.493333"/>
<stop offset="1" stop-color="white" stop-opacity="0.24"/>
</radialGradient>
<radialGradient id="paint14_radial_1095_3858" cx="0" cy="0" r="1" gradientUnits="userSpaceOnUse" gradientTransform="translate(33 83) rotate(90) scale(12)">
<stop stop-color="#6B37DF"/>
<stop offset="0.666667" stop-color="#6B37DF" stop-opacity="0.493333"/>
<stop offset="1" stop-color="white" stop-opacity="0.24"/>
</radialGradient>
<radialGradient id="paint15_radial_1095_3858" cx="0" cy="0" r="1" gradientUnits="userSpaceOnUse" gradientTransform="translate(57 83) rotate(90) scale(12)">
<stop stop-color="#6B37DF"/>
<stop offset="0.666667" stop-color="#6B37DF" stop-opacity="0.493333"/>
<stop offset="1" stop-color="white" stop-opacity="0.24"/>
</radialGradient>
<radialGradient id="paint16_radial_1095_3858" cx="0" cy="0" r="1" gradientUnits="userSpaceOnUse" gradientTransform="translate(81 83) rotate(90) scale(12)">
<stop stop-color="#6B37DF"/>
<stop offset="0.666667" stop-color="#6B37DF" stop-opacity="0.493333"/>
<stop offset="1" stop-color="white" stop-opacity="0.24"/>
</radialGradient>
<radialGradient id="paint17_radial_1095_3858" cx="0" cy="0" r="1" gradientUnits="userSpaceOnUse" gradientTransform="translate(105 11) rotate(90) scale(12)">
<stop stop-color="#6B37DF"/>
<stop offset="0.666667" stop-color="#6B37DF" stop-opacity="0.493333"/>
<stop offset="1" stop-color="white" stop-opacity="0.24"/>
</radialGradient>
<radialGradient id="paint18_radial_1095_3858" cx="0" cy="0" r="1" gradientUnits="userSpaceOnUse" gradientTransform="translate(129 11) rotate(90) scale(12)">
<stop stop-color="#6B37DF"/>
<stop offset="0.666667" stop-color="#6B37DF" stop-opacity="0.493333"/>
<stop offset="1" stop-color="white" stop-opacity="0.24"/>
</radialGradient>
<radialGradient id="paint19_radial_1095_3858" cx="0" cy="0" r="1" gradientUnits="userSpaceOnUse" gradientTransform="translate(153 11) rotate(90) scale(12)">
<stop stop-color="#6B37DF"/>
<stop offset="0.666667" stop-color="#6B37DF" stop-opacity="0.493333"/>
<stop offset="1" stop-color="white" stop-opacity="0.24"/>
</radialGradient>
<radialGradient id="paint20_radial_1095_3858" cx="0" cy="0" r="1" gradientUnits="userSpaceOnUse" gradientTransform="translate(177 11) rotate(90) scale(12)">
<stop stop-color="#6B37DF"/>
<stop offset="0.666667" stop-color="#6B37DF" stop-opacity="0.493333"/>
<stop offset="1" stop-color="white" stop-opacity="0.24"/>
</radialGradient>
<radialGradient id="paint21_radial_1095_3858" cx="0" cy="0" r="1" gradientUnits="userSpaceOnUse" gradientTransform="translate(201 11) rotate(90) scale(12)">
<stop stop-color="#6B37DF"/>
<stop offset="0.666667" stop-color="#6B37DF" stop-opacity="0.493333"/>
<stop offset="1" stop-color="white" stop-opacity="0.24"/>
</radialGradient>
<radialGradient id="paint22_radial_1095_3858" cx="0" cy="0" r="1" gradientUnits="userSpaceOnUse" gradientTransform="translate(225 11) rotate(90) scale(12)">
<stop stop-color="#6B37DF"/>
<stop offset="0.666667" stop-color="#6B37DF" stop-opacity="0.493333"/>
<stop offset="1" stop-color="white" stop-opacity="0.24"/>
</radialGradient>
<radialGradient id="paint23_radial_1095_3858" cx="0" cy="0" r="1" gradientUnits="userSpaceOnUse" gradientTransform="translate(105 35) rotate(-90) scale(12)">
<stop stop-color="#6B37DF"/>
<stop offset="0.666667" stop-color="#6B37DF" stop-opacity="0.493333"/>
<stop offset="1" stop-color="white" stop-opacity="0.24"/>
</radialGradient>
<radialGradient id="paint24_radial_1095_3858" cx="0" cy="0" r="1" gradientUnits="userSpaceOnUse" gradientTransform="translate(129 35) rotate(-90) scale(12)">
<stop stop-color="#6B37DF"/>
<stop offset="0.666667" stop-color="#6B37DF" stop-opacity="0.493333"/>
<stop offset="1" stop-color="white" stop-opacity="0.24"/>
</radialGradient>
<radialGradient id="paint25_radial_1095_3858" cx="0" cy="0" r="1" gradientUnits="userSpaceOnUse" gradientTransform="translate(153 35) rotate(-90) scale(12)">
<stop stop-color="#6B37DF"/>
<stop offset="0.666667" stop-color="#6B37DF" stop-opacity="0.493333"/>
<stop offset="1" stop-color="white" stop-opacity="0.24"/>
</radialGradient>
<radialGradient id="paint26_radial_1095_3858" cx="0" cy="0" r="1" gradientUnits="userSpaceOnUse" gradientTransform="translate(201 35) rotate(-90) scale(12)">
<stop stop-color="#6B37DF"/>
<stop offset="0.666667" stop-color="#6B37DF" stop-opacity="0.493333"/>
<stop offset="1" stop-color="white" stop-opacity="0.24"/>
</radialGradient>
<radialGradient id="paint27_radial_1095_3858" cx="0" cy="0" r="1" gradientUnits="userSpaceOnUse" gradientTransform="translate(177 35) rotate(-90) scale(12)">
<stop stop-color="#6B37DF"/>
<stop offset="0.666667" stop-color="#6B37DF" stop-opacity="0.493333"/>
<stop offset="1" stop-color="white" stop-opacity="0.24"/>
</radialGradient>
<radialGradient id="paint28_radial_1095_3858" cx="0" cy="0" r="1" gradientUnits="userSpaceOnUse" gradientTransform="translate(225 35) rotate(-90) scale(12)">
<stop stop-color="#6B37DF"/>
<stop offset="0.666667" stop-color="#6B37DF" stop-opacity="0.493333"/>
<stop offset="1" stop-color="white" stop-opacity="0.24"/>
</radialGradient>
<radialGradient id="paint29_radial_1095_3858" cx="0" cy="0" r="1" gradientUnits="userSpaceOnUse" gradientTransform="translate(105 59) rotate(90) scale(12)">
<stop stop-color="#6B37DF"/>
<stop offset="0.666667" stop-color="#6B37DF" stop-opacity="0.493333"/>
<stop offset="1" stop-color="white" stop-opacity="0.24"/>
</radialGradient>
<radialGradient id="paint30_radial_1095_3858" cx="0" cy="0" r="1" gradientUnits="userSpaceOnUse" gradientTransform="translate(129 59) rotate(90) scale(12)">
<stop stop-color="#6B37DF"/>
<stop offset="0.666667" stop-color="#6B37DF" stop-opacity="0.493333"/>
<stop offset="1" stop-color="white" stop-opacity="0.24"/>
</radialGradient>
<radialGradient id="paint31_radial_1095_3858" cx="0" cy="0" r="1" gradientUnits="userSpaceOnUse" gradientTransform="translate(201 59) rotate(90) scale(12)">
<stop stop-color="#6B37DF"/>
<stop offset="0.666667" stop-color="#6B37DF" stop-opacity="0.493333"/>
<stop offset="1" stop-color="white" stop-opacity="0.24"/>
</radialGradient>
<radialGradient id="paint32_radial_1095_3858" cx="0" cy="0" r="1" gradientUnits="userSpaceOnUse" gradientTransform="translate(153 59) rotate(90) scale(12)">
<stop stop-color="#6B37DF"/>
<stop offset="0.666667" stop-color="#6B37DF" stop-opacity="0.493333"/>
<stop offset="1" stop-color="white" stop-opacity="0.24"/>
</radialGradient>
<radialGradient id="paint33_radial_1095_3858" cx="0" cy="0" r="1" gradientUnits="userSpaceOnUse" gradientTransform="translate(177 59) rotate(90) scale(12)">
<stop stop-color="#6B37DF"/>
<stop offset="0.666667" stop-color="#6B37DF" stop-opacity="0.493333"/>
<stop offset="1" stop-color="white" stop-opacity="0.24"/>
</radialGradient>
<radialGradient id="paint34_radial_1095_3858" cx="0" cy="0" r="1" gradientUnits="userSpaceOnUse" gradientTransform="translate(225 59) rotate(90) scale(12)">
<stop stop-color="#6B37DF"/>
<stop offset="0.666667" stop-color="#6B37DF" stop-opacity="0.493333"/>
<stop offset="1" stop-color="white" stop-opacity="0.24"/>
</radialGradient>
<radialGradient id="paint35_radial_1095_3858" cx="0" cy="0" r="1" gradientUnits="userSpaceOnUse" gradientTransform="translate(105 83) rotate(90) scale(12)">
<stop stop-color="#6B37DF"/>
<stop offset="0.666667" stop-color="#6B37DF" stop-opacity="0.493333"/>
<stop offset="1" stop-color="white" stop-opacity="0.24"/>
</radialGradient>
<radialGradient id="paint36_radial_1095_3858" cx="0" cy="0" r="1" gradientUnits="userSpaceOnUse" gradientTransform="translate(201 83) rotate(90) scale(12)">
<stop stop-color="#6B37DF"/>
<stop offset="0.666667" stop-color="#6B37DF" stop-opacity="0.493333"/>
<stop offset="1" stop-color="white" stop-opacity="0.24"/>
</radialGradient>
<radialGradient id="paint37_radial_1095_3858" cx="0" cy="0" r="1" gradientUnits="userSpaceOnUse" gradientTransform="translate(129 83) rotate(90) scale(12)">
<stop stop-color="#6B37DF"/>
<stop offset="0.666667" stop-color="#6B37DF" stop-opacity="0.493333"/>
<stop offset="1" stop-color="white" stop-opacity="0.24"/>
</radialGradient>
<radialGradient id="paint38_radial_1095_3858" cx="0" cy="0" r="1" gradientUnits="userSpaceOnUse" gradientTransform="translate(153 83) rotate(90) scale(12)">
<stop stop-color="#6B37DF"/>
<stop offset="0.666667" stop-color="#6B37DF" stop-opacity="0.493333"/>
<stop offset="1" stop-color="white" stop-opacity="0.24"/>
</radialGradient>
<radialGradient id="paint39_radial_1095_3858" cx="0" cy="0" r="1" gradientUnits="userSpaceOnUse" gradientTransform="translate(177 83) rotate(90) scale(12)">
<stop stop-color="#6B37DF"/>
<stop offset="0.666667" stop-color="#6B37DF" stop-opacity="0.493333"/>
<stop offset="1" stop-color="white" stop-opacity="0.24"/>
</radialGradient>
<radialGradient id="paint40_radial_1095_3858" cx="0" cy="0" r="1" gradientUnits="userSpaceOnUse" gradientTransform="translate(225 83) rotate(90) scale(12)">
<stop stop-color="#6B37DF"/>
<stop offset="0.666667" stop-color="#6B37DF" stop-opacity="0.493333"/>
<stop offset="1" stop-color="white" stop-opacity="0.24"/>
</radialGradient>
</defs>
</svg>
