<svg width="22" height="22" viewBox="0 0 22 22" fill="none" xmlns="http://www.w3.org/2000/svg">
<path opacity="0.2" d="M13.0625 6.875V15.125C13.0625 15.3073 12.9901 15.4822 12.8611 15.6111C12.7322 15.7401 12.5573 15.8125 12.375 15.8125H3.4375C3.25516 15.8125 3.0803 15.7401 2.95136 15.6111C2.82243 15.4822 2.75 15.3073 2.75 15.125V6.875C2.75 6.69266 2.82243 6.5178 2.95136 6.38886C3.0803 6.25993 3.25516 6.1875 3.4375 6.1875H12.375C12.5573 6.1875 12.7322 6.25993 12.8611 6.38886C12.9901 6.5178 13.0625 6.69266 13.0625 6.875Z" fill="#4DAD61"/>
<path d="M17.1875 2.0625H6.1875C5.82283 2.0625 5.47309 2.20737 5.21523 2.46523C4.95737 2.72309 4.8125 3.07283 4.8125 3.4375V5.5H3.4375C3.07283 5.5 2.72309 5.64487 2.46523 5.90273C2.20737 6.16059 2.0625 6.51033 2.0625 6.875V15.125C2.0625 15.4897 2.20737 15.8394 2.46523 16.0973C2.72309 16.3551 3.07283 16.5 3.4375 16.5H4.8125V18.5625C4.8125 18.9272 4.95737 19.2769 5.21523 19.5348C5.47309 19.7926 5.82283 19.9375 6.1875 19.9375H17.1875C17.5522 19.9375 17.9019 19.7926 18.1598 19.5348C18.4176 19.2769 18.5625 18.9272 18.5625 18.5625V3.4375C18.5625 3.07283 18.4176 2.72309 18.1598 2.46523C17.9019 2.20737 17.5522 2.0625 17.1875 2.0625ZM13.75 8.9375H17.1875V13.0625H13.75V8.9375ZM17.1875 7.5625H13.75V6.875C13.75 6.51033 13.6051 6.16059 13.3473 5.90273C13.0894 5.64487 12.7397 5.5 12.375 5.5V3.4375H17.1875V7.5625ZM6.1875 3.4375H11V5.5H6.1875V3.4375ZM3.4375 6.875H12.375V13.7354C12.375 13.7405 12.375 13.7448 12.375 13.75C12.375 13.7552 12.375 13.7595 12.375 13.7646V15.125H3.4375V6.875ZM6.1875 16.5H11V18.5625H6.1875V16.5ZM12.375 18.5625V16.5C12.7397 16.5 13.0894 16.3551 13.3473 16.0973C13.6051 15.8394 13.75 15.4897 13.75 15.125V14.4375H17.1875V18.5625H12.375ZM5.65898 12.6225L7.01164 11L5.65898 9.3775C5.54229 9.23733 5.48606 9.05654 5.50266 8.87491C5.51926 8.69328 5.60733 8.52568 5.7475 8.40898C5.88767 8.29229 6.06846 8.23606 6.25009 8.25266C6.43172 8.26926 6.59932 8.35733 6.71602 8.4975L7.90625 9.92578L9.09648 8.4975C9.15427 8.42809 9.22515 8.37075 9.3051 8.32874C9.38504 8.28673 9.47248 8.26088 9.56241 8.25266C9.65235 8.24444 9.74302 8.25401 9.82925 8.28083C9.91549 8.30766 9.99559 8.3512 10.065 8.40898C10.1344 8.46677 10.1918 8.53765 10.2338 8.6176C10.2758 8.69754 10.3016 8.78498 10.3098 8.87491C10.3181 8.96485 10.3085 9.05552 10.2817 9.14175C10.2548 9.22799 10.2113 9.30809 10.1535 9.3775L8.80086 11L10.1535 12.6225C10.2702 12.7627 10.3264 12.9435 10.3098 13.1251C10.2932 13.3067 10.2052 13.4743 10.065 13.591C9.92483 13.7077 9.74404 13.7639 9.56241 13.7473C9.38078 13.7307 9.21318 13.6427 9.09648 13.5025L7.90625 12.0742L6.71602 13.5025C6.59932 13.6427 6.43172 13.7307 6.25009 13.7473C6.06846 13.7639 5.88767 13.7077 5.7475 13.591C5.60733 13.4743 5.51926 13.3067 5.50266 13.1251C5.48606 12.9435 5.54229 12.7627 5.65898 12.6225Z" fill="#4DAD61"/>
</svg>
