<svg width="22" height="22" viewBox="0 0 22 22" fill="none" xmlns="http://www.w3.org/2000/svg">
<path opacity="0.2" d="M17.8757 8.25H13.0625V3.4375L17.8757 8.25Z" fill="#F03D52"/>
<path d="M18.5632 8.25C18.5632 8.15808 18.5448 8.06708 18.509 7.98244C18.4731 7.89779 18.4206 7.82122 18.3546 7.75728L13.5486 2.95133C13.5456 2.94832 13.5423 2.94576 13.5392 2.94281C13.5262 2.93025 13.513 2.91787 13.4989 2.90635C13.4936 2.90193 13.4877 2.89812 13.4822 2.89387C13.47 2.88439 13.4578 2.87486 13.4449 2.86621C13.44 2.86295 13.4349 2.86023 13.4299 2.8571C13.4159 2.84819 13.4018 2.83935 13.387 2.83145C13.3835 2.82955 13.3798 2.82806 13.3762 2.82622C13.3598 2.8178 13.3432 2.80968 13.3261 2.80256C13.3237 2.80157 13.3212 2.80086 13.3188 2.79989C13.3005 2.79252 13.2819 2.78566 13.2629 2.77986C13.2603 2.77908 13.2577 2.77861 13.2551 2.77786C13.2363 2.77238 13.2173 2.76736 13.1979 2.76348C13.1918 2.76226 13.1857 2.76174 13.1796 2.76069C13.1636 2.75794 13.1476 2.75509 13.1311 2.75346C13.1083 2.75116 13.0854 2.75001 13.0625 2.75H4.81183C4.44728 2.75042 4.09779 2.89542 3.84002 3.15319C3.58224 3.41096 3.43725 3.76046 3.43683 4.125V11.6875C3.43683 11.8698 3.50926 12.0447 3.63819 12.1736C3.76712 12.3026 3.94199 12.375 4.12433 12.375C4.30666 12.375 4.48153 12.3026 4.61046 12.1736C4.7394 12.0447 4.81183 11.8698 4.81183 11.6875V4.125H12.375V8.25C12.375 8.43233 12.4474 8.6072 12.5764 8.73613C12.7053 8.86506 12.8802 8.93749 13.0625 8.9375H17.1875V11.6875C17.1875 11.8698 17.2599 12.0447 17.3889 12.1736C17.5178 12.3026 17.6927 12.375 17.875 12.375C18.0573 12.375 18.2322 12.3026 18.3611 12.1736C18.4901 12.0447 18.5625 11.8698 18.5625 11.6875V8.26371C18.5626 8.2591 18.5632 8.25463 18.5632 8.25ZM13.75 5.09727L16.2152 7.5625H13.75V5.09727ZM5.5 13.75H4.125C3.94267 13.75 3.7678 13.8224 3.63887 13.9514C3.50994 14.0803 3.43751 14.2552 3.4375 14.4375V18.5625C3.4375 18.7448 3.50993 18.9197 3.63886 19.0486C3.7678 19.1776 3.94266 19.25 4.125 19.25C4.30734 19.25 4.4822 19.1776 4.61114 19.0486C4.74007 18.9197 4.8125 18.7448 4.8125 18.5625V17.875H5.5C6.04701 17.875 6.57161 17.6577 6.95841 17.2709C7.3452 16.8841 7.5625 16.3595 7.5625 15.8125C7.5625 15.2655 7.3452 14.7409 6.95841 14.3541C6.57161 13.9673 6.04701 13.75 5.5 13.75ZM5.5 16.5H4.8125V15.125H5.5C5.68234 15.125 5.8572 15.1974 5.98614 15.3264C6.11507 15.4553 6.1875 15.6302 6.1875 15.8125C6.1875 15.9948 6.11507 16.1697 5.98614 16.2986C5.8572 16.4276 5.68234 16.5 5.5 16.5ZM10.6562 13.75H9.625C9.44267 13.75 9.2678 13.8224 9.13887 13.9514C9.00994 14.0803 8.93751 14.2552 8.9375 14.4375V18.5625C8.93751 18.7448 9.00994 18.9197 9.13887 19.0486C9.2678 19.1776 9.44267 19.25 9.625 19.25H10.6562C11.3856 19.25 12.0851 18.9603 12.6008 18.4445C13.1165 17.9288 13.4062 17.2293 13.4062 16.5C13.4062 15.7707 13.1165 15.0712 12.6008 14.5555C12.0851 14.0397 11.3856 13.75 10.6562 13.75ZM10.6562 17.875H10.3125V15.125H10.6562C11.0209 15.125 11.3707 15.2699 11.6285 15.5277C11.8864 15.7856 12.0312 16.1353 12.0312 16.5C12.0312 16.8647 11.8864 17.2144 11.6285 17.4723C11.3707 17.7301 11.0209 17.875 10.6562 17.875ZM18.5625 14.4375C18.5625 14.6198 18.4901 14.7947 18.3611 14.9236C18.2322 15.0526 18.0573 15.125 17.875 15.125H16.1562V16.1562H17.5312C17.7136 16.1562 17.8885 16.2287 18.0174 16.3576C18.1463 16.4865 18.2188 16.6614 18.2188 16.8438C18.2188 17.0261 18.1463 17.201 18.0174 17.3299C17.8885 17.4588 17.7136 17.5312 17.5312 17.5312H16.1562V18.5625C16.1562 18.7448 16.0838 18.9197 15.9549 19.0486C15.826 19.1776 15.6511 19.25 15.4688 19.25C15.2864 19.25 15.1115 19.1776 14.9826 19.0486C14.8537 18.9197 14.7812 18.7448 14.7812 18.5625V14.4375C14.7813 14.2552 14.8537 14.0803 14.9826 13.9514C15.1116 13.8224 15.2864 13.75 15.4688 13.75H17.875C18.0573 13.75 18.2322 13.8224 18.3611 13.9514C18.4901 14.0803 18.5625 14.2552 18.5625 14.4375Z" fill="#F03D52"/>
</svg>
