<?xml version="1.0" standalone="no"?>
<!DOCTYPE svg PUBLIC "-//W3C//DTD SVG 20010904//EN"
 "http://www.w3.org/TR/2001/REC-SVG-20010904/DTD/svg10.dtd">
<svg version="1.0" xmlns="http://www.w3.org/2000/svg"
 width="672.000000pt" height="672.000000pt" viewBox="0 0 672.000000 672.000000"
 preserveAspectRatio="xMidYMid meet">
<metadata>
Created by potrace 1.14, written by Peter Selinger 2001-2017
</metadata>
<g transform="translate(0.000000,672.000000) scale(0.100000,-0.100000)"
fill="#000000" stroke="none">
<path d="M1769 6716 c-2 -2 -26 -6 -54 -10 -118 -15 -193 -32 -315 -73 -122
-41 -308 -133 -367 -183 -7 -5 -17 -10 -23 -10 -5 0 -10 -4 -10 -10 0 -5 -6
-10 -14 -10 -8 0 -16 -3 -18 -7 -2 -5 -25 -26 -53 -47 -62 -48 -210 -197 -250
-251 -16 -22 -32 -42 -35 -45 -19 -17 -117 -184 -147 -248 -19 -42 -41 -88
-48 -102 -13 -24 -47 -134 -45 -145 0 -3 -7 -19 -15 -35 -9 -17 -14 -30 -11
-30 2 0 0 -17 -5 -37 -4 -21 -10 -53 -13 -70 -4 -18 -9 -48 -12 -65 -3 -18 -7
-73 -9 -122 -2 -48 -6 -90 -9 -93 -2 -3 -1 -16 4 -29 5 -13 6 -26 0 -29 -5 -3
-5 -18 0 -35 5 -17 6 -30 2 -30 -4 0 -6 -19 -4 -42 1 -24 3 -49 2 -55 0 -17 0
-39 1 -95 0 -26 -2 -52 -6 -58 -3 -5 -2 -10 3 -10 5 0 6 -16 3 -37 -4 -21 -4
-55 -1 -75 4 -21 3 -38 -1 -38 -4 0 -4 -13 1 -29 4 -16 6 -32 2 -35 -7 -8 -6
-102 2 -115 4 -5 2 -12 -3 -16 -7 -3 -7 -15 -1 -30 6 -15 6 -27 0 -30 -6 -3
-6 -15 0 -30 6 -15 6 -27 0 -30 -6 -3 -6 -15 0 -30 6 -15 6 -27 0 -30 -6 -3
-6 -15 0 -30 6 -15 6 -27 0 -30 -6 -3 -6 -15 0 -30 6 -15 6 -27 0 -30 -6 -3
-6 -15 0 -30 6 -15 6 -27 0 -30 -6 -3 -6 -15 0 -30 6 -15 6 -27 0 -30 -6 -3
-6 -15 0 -30 6 -15 6 -25 0 -25 -5 0 -5 -12 -1 -27 7 -29 6 -76 -3 -100 -3 -7
-1 -13 4 -13 5 0 5 -12 0 -29 -4 -16 -6 -32 -3 -35 8 -8 9 -86 1 -86 -4 0 -3
-13 2 -30 5 -16 6 -30 2 -30 -8 0 -6 -95 2 -116 3 -8 1 -14 -4 -14 -5 0 -5
-13 0 -30 5 -16 6 -30 2 -30 -4 0 -7 -16 -7 -35 0 -19 3 -35 7 -35 4 0 3 -13
-2 -30 -5 -17 -5 -30 0 -30 5 0 5 -13 0 -30 -5 -17 -5 -30 0 -30 5 0 5 -13 0
-30 -5 -17 -5 -32 0 -35 5 -3 6 -15 0 -29 -4 -12 -4 -29 0 -36 5 -8 5 -21 0
-30 -5 -9 -5 -22 0 -30 5 -8 5 -21 0 -31 -5 -9 -6 -19 -3 -23 8 -8 7 -102 -2
-116 -3 -5 -2 -10 4 -10 6 0 6 -11 1 -29 -4 -16 -6 -32 -3 -35 8 -8 9 -86 1
-86 -4 0 -3 -13 2 -30 5 -16 6 -30 2 -30 -8 0 -6 -95 2 -116 3 -8 1 -14 -4
-14 -5 0 -5 -13 0 -30 5 -17 5 -30 0 -30 -5 0 -5 -13 0 -30 5 -17 5 -30 0 -30
-5 0 -5 -13 0 -30 5 -17 5 -30 0 -30 -5 0 -5 -13 0 -30 5 -19 5 -30 -1 -30 -6
0 -7 -4 -4 -10 3 -5 8 -44 10 -86 5 -94 13 -165 27 -224 5 -25 12 -54 14 -66
18 -96 147 -404 186 -445 7 -8 20 -27 28 -44 8 -16 20 -37 27 -45 78 -100 116
-144 162 -193 113 -117 279 -241 416 -308 39 -19 72 -37 75 -40 3 -3 14 -8 25
-12 11 -3 52 -18 90 -32 39 -14 77 -28 85 -30 8 -2 35 -8 60 -14 91 -23 80
-21 179 -36 24 -4 74 -9 110 -10 36 -2 68 -4 71 -5 12 -4 82 -1 87 4 3 2 16 1
29 -4 15 -6 26 -6 30 1 4 7 10 7 16 1 6 -6 22 -7 39 -2 16 5 29 5 29 1 0 -8
42 -7 57 2 7 4 14 4 17 -1 5 -9 59 -8 75 2 5 4 12 2 16 -3 3 -6 15 -7 28 -2
12 5 31 5 42 1 11 -4 25 -3 32 2 7 5 14 5 17 -1 4 -6 15 -7 30 -1 12 4 29 4
36 0 8 -5 22 -4 32 1 12 6 18 6 18 0 0 -6 11 -6 30 -1 17 5 32 5 35 0 3 -5 16
-6 28 -1 12 5 31 5 42 1 11 -4 26 -3 33 2 8 7 12 7 12 0 0 -7 10 -8 28 -2 16
4 35 4 43 -1 8 -4 20 -4 27 0 6 4 39 4 72 1 33 -3 64 -2 69 3 5 5 12 4 15 -2
4 -6 15 -7 29 -2 12 5 31 5 42 1 11 -4 28 -3 38 2 9 5 17 5 17 1 0 -10 41 -10
57 0 5 4 13 3 17 0 9 -10 46 -11 46 -2 0 4 12 4 28 0 15 -4 41 -4 59 0 18 3
35 4 38 1 7 -8 45 -10 45 -3 0 7 89 5 97 -2 3 -3 16 -2 29 3 14 6 24 6 24 0 0
-5 12 -5 29 0 15 4 34 4 42 0 7 -5 20 -5 30 0 9 5 18 7 21 5 7 -7 78 -13 78
-6 0 3 16 6 35 6 19 0 35 -3 35 -6 0 -6 70 -2 77 5 3 2 18 0 34 -4 18 -5 29
-5 29 1 0 6 6 6 18 0 10 -5 24 -6 32 -1 7 4 23 4 35 0 14 -5 27 -4 33 2 6 6
12 6 16 -1 4 -6 15 -7 30 -1 12 4 29 4 36 0 8 -5 22 -4 31 1 11 5 20 5 23 0 5
-7 41 -8 41 -1 0 1 17 2 38 3 20 1 37 -1 37 -4 0 -3 10 -5 23 -3 12 1 22 3 22
4 0 1 17 2 38 3 20 1 37 -1 37 -4 0 -3 12 -5 28 -3 50 7 138 8 148 1 6 -3 16
-2 23 3 8 4 27 4 42 0 20 -6 29 -5 29 3 0 8 3 8 11 0 8 -8 20 -8 35 -3 13 5
24 6 24 2 0 -9 65 -6 80 3 6 3 10 1 10 -5 0 -6 4 -9 9 -5 17 10 71 12 71 2 0
-5 5 -5 13 2 8 6 40 13 73 15 32 2 59 5 59 6 0 2 9 4 20 5 34 5 79 14 113 24
17 5 32 7 32 4 0 -3 6 -1 13 4 6 5 39 18 72 28 33 10 106 39 163 66 56 26 104
47 106 46 3 -1 15 8 28 19 13 12 34 27 48 34 102 52 312 247 416 385 129 171
238 400 280 586 2 11 6 29 9 41 13 56 25 151 30 229 10 141 10 159 3 159 -4 0
-3 14 2 30 5 17 5 30 0 30 -5 0 -5 13 0 30 5 17 5 30 0 30 -5 0 -5 13 0 30 5
17 5 30 0 30 -5 0 -5 13 0 30 5 17 5 30 0 30 -5 0 -5 13 0 30 5 17 5 30 0 30
-5 0 -5 13 0 30 5 17 5 30 0 30 -5 0 -5 13 0 30 5 17 5 30 0 30 -5 0 -5 13 0
30 5 17 5 30 0 30 -5 0 -5 13 0 30 5 17 5 30 0 30 -5 0 -5 13 0 30 5 17 5 30
0 30 -5 0 -5 13 0 30 5 17 5 32 0 35 -5 3 -5 16 0 30 6 15 6 27 0 30 -5 3 -6
15 0 29 4 12 4 29 0 36 -5 8 -5 21 0 30 5 9 5 22 0 30 -5 8 -5 21 0 30 5 9 5
22 0 30 -5 8 -5 21 0 30 5 9 5 22 0 30 -5 8 -5 21 0 30 5 9 5 22 0 30 -5 8 -5
21 0 30 5 9 5 22 0 30 -5 8 -5 21 0 30 5 9 5 22 0 30 -5 8 -5 21 0 30 5 9 5
22 0 30 -5 8 -5 21 0 30 5 9 5 22 0 30 -5 8 -5 21 0 30 5 9 5 22 0 30 -5 8 -5
21 0 30 5 9 5 22 0 30 -5 8 -5 21 0 30 5 9 5 22 0 30 -5 8 -5 21 0 30 5 9 5
22 0 30 -5 8 -5 21 0 30 5 9 5 22 0 30 -4 7 -4 24 0 36 6 14 5 26 0 29 -6 3
-6 15 0 30 6 15 6 27 0 30 -6 3 -6 15 0 30 6 15 6 27 0 30 -6 3 -6 15 0 30 5
13 6 27 1 29 -4 3 -5 25 -1 49 3 25 3 54 -1 65 -5 12 -4 24 1 27 6 3 6 15 0
29 -5 13 -6 26 -3 30 8 8 9 486 1 486 -4 0 -3 14 2 30 5 17 5 30 0 30 -5 0 -5
13 0 30 5 17 5 30 0 30 -5 0 -5 13 0 30 5 17 5 30 0 30 -4 0 -5 15 -1 33 4 17
4 47 0 65 -3 18 -3 35 2 38 5 3 7 10 4 15 -4 5 -8 46 -10 91 -5 114 -20 215
-45 303 -6 22 -12 48 -15 58 -18 79 -140 357 -157 357 -4 0 -8 5 -8 11 0 13
-70 117 -123 184 -98 122 -352 345 -394 345 -7 0 -13 4 -13 10 0 25 -355 176
-457 194 -13 3 -31 7 -41 10 -9 3 -35 8 -57 11 -22 4 -51 9 -65 12 -27 7
-3244 16 -3251 9z"/>
</g>
</svg>
