<svg width="60" height="64" viewBox="0 0 60 64" fill="none" xmlns="http://www.w3.org/2000/svg">
<rect x="3" y="0.75" width="53.5" height="53.5" rx="12" fill="url(#paint0_linear_1095_4750)"/>
<g style="mix-blend-mode:overlay">
<rect x="3" y="0.75" width="53.5" height="53.5" rx="12" fill="url(#paint1_radial_1095_4750)" fill-opacity="0.32"/>
</g>
<g style="mix-blend-mode:plus-darker" filter="url(#filter0_dddi_1095_4750)">
<rect x="6.11646" y="3.86646" width="47.267" height="47.267" rx="12" fill="#090937" fill-opacity="0.05" shape-rendering="crispEdges"/>
</g>
<path d="M37.3484 33.6704C37.3484 33.802 37.4361 33.9162 37.5629 33.9513C39.105 34.3786 40.6497 34.8006 42.1883 35.2381C44.5777 35.9163 45.6826 37.388 45.5097 39.643C45.3708 41.4911 43.849 43.0442 42.0256 43.1934C39.8293 43.3765 38.2364 42.227 37.5484 39.9109C36.9535 37.9022 34.3812 37.3545 33.0499 38.9721C32.9373 39.1088 32.8247 39.2454 32.7119 39.3819C32.5729 39.5481 32.3526 39.6532 32.1561 39.7617C27.7229 42.21 18.8397 40.406 15.9893 36.2384C14.9895 34.7769 14.3286 32.8644 14.1625 31.0976C13.8642 27.9067 13.993 24.6683 14.0473 21.4502C14.132 16.1059 18.4465 11.8265 23.8083 11.7485C26.9671 11.7044 30.1327 11.7146 33.2915 11.796C38.3482 11.9282 42.6153 16.1907 42.7915 21.2467C42.8492 22.9388 42.8119 24.6344 42.7915 26.3299C42.7407 29.9108 41.5036 31.7182 38.2228 33.0543C37.977 33.1538 37.7447 33.2825 37.5093 33.4057C37.4111 33.4571 37.3484 33.5596 37.3484 33.6704ZM35.786 26.964C35.7729 26.964 35.7622 26.9534 35.7622 26.9403C35.7625 25.3679 35.7858 23.7923 35.7555 22.22C35.7148 20.1107 34.6404 18.9374 32.5289 18.89C29.8209 18.8289 27.1095 18.8425 24.4048 18.9341C22.3272 19.0019 21.2935 20.0734 21.2393 22.1352C21.1681 24.787 21.1545 27.4421 21.1884 30.0973C21.2155 32.2675 22.2357 33.3764 24.3913 33.4341C27.7195 33.5222 31.0478 33.4612 34.376 33.4849C35.3792 33.4917 35.8029 33.0373 35.7893 32.0471C35.7656 30.3561 35.7825 28.6618 35.7826 26.9674C35.7826 26.9655 35.7841 26.964 35.786 26.964Z" fill="white"/>
<defs>
<filter id="filter0_dddi_1095_4750" x="0.116455" y="-52.1335" width="59.2671" height="115.267" filterUnits="userSpaceOnUse" color-interpolation-filters="sRGB">
<feFlood flood-opacity="0" result="BackgroundImageFix"/>
<feColorMatrix in="SourceAlpha" type="matrix" values="0 0 0 0 0 0 0 0 0 0 0 0 0 0 0 0 0 0 127 0" result="hardAlpha"/>
<feOffset dy="0.5"/>
<feGaussianBlur stdDeviation="0.75"/>
<feComposite in2="hardAlpha" operator="out"/>
<feColorMatrix type="matrix" values="0 0 0 0 1 0 0 0 0 1 0 0 0 0 1 0 0 0 0.12 0"/>
<feBlend mode="normal" in2="BackgroundImageFix" result="effect1_dropShadow_1095_4750"/>
<feColorMatrix in="SourceAlpha" type="matrix" values="0 0 0 0 0 0 0 0 0 0 0 0 0 0 0 0 0 0 127 0" result="hardAlpha"/>
<feOffset dy="6"/>
<feGaussianBlur stdDeviation="3"/>
<feComposite in2="hardAlpha" operator="out"/>
<feColorMatrix type="matrix" values="0 0 0 0 1 0 0 0 0 1 0 0 0 0 1 0 0 0 0.06 0"/>
<feBlend mode="normal" in2="effect1_dropShadow_1095_4750" result="effect2_dropShadow_1095_4750"/>
<feColorMatrix in="SourceAlpha" type="matrix" values="0 0 0 0 0 0 0 0 0 0 0 0 0 0 0 0 0 0 127 0" result="hardAlpha"/>
<feOffset/>
<feComposite in2="hardAlpha" operator="out"/>
<feColorMatrix type="matrix" values="0 0 0 0 1 0 0 0 0 1 0 0 0 0 1 0 0 0 0.06 0"/>
<feBlend mode="normal" in2="effect2_dropShadow_1095_4750" result="effect3_dropShadow_1095_4750"/>
<feBlend mode="normal" in="SourceGraphic" in2="effect3_dropShadow_1095_4750" result="shape"/>
<feColorMatrix in="SourceAlpha" type="matrix" values="0 0 0 0 0 0 0 0 0 0 0 0 0 0 0 0 0 0 127 0" result="hardAlpha"/>
<feOffset dy="-56"/>
<feGaussianBlur stdDeviation="82"/>
<feComposite in2="hardAlpha" operator="arithmetic" k2="-1" k3="1"/>
<feColorMatrix type="matrix" values="0 0 0 0 0.537255 0 0 0 0 0.0627451 0 0 0 0 0.129412 0 0 0 0.24 0"/>
<feBlend mode="color-burn" in2="shape" result="effect4_innerShadow_1095_4750"/>
</filter>
<linearGradient id="paint0_linear_1095_4750" x1="20.5628" y1="-4.21693" x2="44.6833" y2="79.5067" gradientUnits="userSpaceOnUse">
<stop stop-color="#9158E7"/>
<stop offset="0.697782" stop-color="#4154F1"/>
<stop offset="0.995" stop-color="#4154F1"/>
</linearGradient>
<radialGradient id="paint1_radial_1095_4750" cx="0" cy="0" r="1" gradientUnits="userSpaceOnUse" gradientTransform="translate(29.75 -7.62561) rotate(90) scale(78.0749 176.137)">
<stop stop-color="white" stop-opacity="0.7"/>
<stop offset="1" stop-color="white" stop-opacity="0"/>
</radialGradient>
</defs>
</svg>
