<svg width="194" height="193" viewBox="0 0 194 193" fill="none" xmlns="http://www.w3.org/2000/svg">
<path d="M143.212 134.041C143.212 134.845 143.748 135.542 144.522 135.757C153.94 138.366 163.374 140.943 172.77 143.615C187.363 147.757 194.111 156.745 193.055 170.517C192.207 181.804 182.913 191.289 171.776 192.201C158.363 193.319 148.635 186.298 144.433 172.153C143.745 169.829 143.073 167.499 142.415 165.177C139.758 155.795 127.733 153.252 121.564 160.803C119.339 163.527 117.122 166.228 114.895 168.923C114.047 169.938 112.701 170.58 111.501 171.242C84.4262 186.195 30.1738 175.177 12.7658 149.725C6.65956 140.799 2.62323 129.118 1.60897 118.328C-0.212552 98.8404 0.574015 79.0624 0.905201 59.4087C1.42268 26.7699 27.7727 0.634034 60.5187 0.157706C79.8103 -0.111522 99.1432 -0.0493926 118.435 0.447645C149.318 1.25533 175.378 27.2877 176.454 58.1662C176.806 68.5004 176.579 78.8554 176.454 89.2103C176.144 111.08 168.589 122.118 148.552 130.278C147.051 130.886 145.632 131.672 144.195 132.424C143.595 132.738 143.212 133.364 143.212 134.041ZM133.669 93.0831C133.589 93.0831 133.524 93.0182 133.525 92.9382C133.526 83.3354 133.668 73.7124 133.483 64.1099C133.235 51.2283 126.673 44.0627 113.778 43.7728C97.2389 43.4 80.6796 43.4828 64.1617 44.042C51.4732 44.4562 45.1599 51.0005 44.8287 63.5921C44.3941 79.7873 44.3113 96.0032 44.5183 112.219C44.6838 125.473 50.9143 132.245 64.0789 132.598C84.4055 133.136 104.732 132.763 125.059 132.908C131.185 132.95 133.773 130.174 133.69 124.127C133.545 113.8 133.649 103.452 133.649 93.1038C133.649 93.0923 133.658 93.0831 133.669 93.0831Z" fill="white"/>
</svg>
